<?xml version="1.0" encoding="UTF-8" standalone="no"?>
<!-- Created with Inkscape (http://www.inkscape.org/) -->

<svg
   xmlns:dc="http://purl.org/dc/elements/1.1/"
   xmlns:cc="http://creativecommons.org/ns#"
   xmlns:rdf="http://www.w3.org/1999/02/22-rdf-syntax-ns#"
   xmlns:svg="http://www.w3.org/2000/svg"
   xmlns="http://www.w3.org/2000/svg"
   xmlns:sodipodi="http://sodipodi.sourceforge.net/DTD/sodipodi-0.dtd"
   xmlns:inkscape="http://www.inkscape.org/namespaces/inkscape"
   id="svg4168"
   version="1.1"
   inkscape:version="0.91 r13725"
   width="582"
   height="100"
   viewBox="0 0 582 100"
   sodipodi:docname="logo.svg">
  <metadata
     id="metadata4174">
    <rdf:RDF>
      <cc:Work
         rdf:about="">
        <dc:format>image/svg+xml</dc:format>
        <dc:type
           rdf:resource="http://purl.org/dc/dcmitype/StillImage" />
        <dc:title></dc:title>
      </cc:Work>
    </rdf:RDF>
  </metadata>
  <defs
     id="defs4172" />
  <sodipodi:namedview
     pagecolor="#ffffff"
     bordercolor="#666666"
     borderopacity="1"
     objecttolerance="10"
     gridtolerance="10"
     guidetolerance="10"
     inkscape:pageopacity="0"
     inkscape:pageshadow="2"
     inkscape:window-width="1600"
     inkscape:window-height="837"
     id="namedview4170"
     showgrid="false"
     inkscape:zoom="2.1100066"
     inkscape:cx="332.86974"
     inkscape:cy="21.61597"
     inkscape:window-x="-8"
     inkscape:window-y="-8"
     inkscape:window-maximized="1"
     inkscape:current-layer="svg4168" />
  <g
     style="font-style:normal;font-weight:normal;font-size:40px;line-height:125%;font-family:sans-serif;letter-spacing:0px;word-spacing:0px;fill:#d7e3f4;fill-opacity:1;stroke:none;stroke-width:1px;stroke-linecap:butt;stroke-linejoin:miter;stroke-opacity:1"
     id="g4733"
     transform="matrix(0.27735026,0,0,0.25879575,-4.7413466,-0.77385015)">
    <g
       id="g4710">
      <g
         id="g4177"
         transform="matrix(1.1879803,0,0,1.3665138,-12.259687,-160.88747)">
        <ellipse
           transform="matrix(0.97379638,-0.2274217,0.06364321,0.99797273,0,0)"
           ry="104.88871"
           rx="197.90331"
           cy="317.44629"
           cx="204.64352"
           id="path4174"
           style="font-style:normal;font-weight:normal;font-size:40px;line-height:125%;font-family:sans-serif;letter-spacing:0px;word-spacing:0px;fill:#2c5aa0;fill-opacity:1;stroke:none;stroke-width:5.19680738px;stroke-linecap:butt;stroke-linejoin:miter;stroke-opacity:0.94409946" />
        <path
           transform="matrix(1.0725679,0,0,0.90714788,14.933339,-67.312938)"
           inkscape:transform-center-y="16.949153"
           inkscape:transform-center-x="36.016949"
           inkscape:connector-curvature="0"
           id="path8804"
           d="m 111.61771,470.23143 -19.46926,3.55771 11.52132,-3.57078 c 6.33671,-1.96392 15.76567,-4.50888 20.95326,-5.65546 7.2929,-1.61191 9.33634,-2.51725 9.01038,-3.99204 -0.53993,-2.44285 3.58568,-5.62059 8.79072,-6.77103 6.00553,-1.32736 23.47907,-2.31667 23.697,-1.34168 0.10344,0.46339 -3.65794,1.47552 -8.35898,2.24925 -9.73217,1.60179 -18.73753,5.72834 -19.3586,8.87074 -0.23147,1.17102 -1.97236,2.34657 -3.8687,2.61235 -1.89634,0.26579 -12.20904,2.0842 -22.91714,4.04094 z m -44.26866,7.67325 c -0.26861,-1.2153 0.97132,-2.26327 3.28218,-2.77402 2.04263,-0.45147 3.60111,-1.33111 3.46327,-1.95473 -0.13783,-0.62361 4.50552,-2.6144 10.31859,-4.42397 17.98722,-5.59929 59.55398,-21.84347 76.68792,-29.96941 8.97783,-4.25784 16.63185,-7.80972 17.00892,-7.89306 0.37707,-0.0833 0.62583,1.55176 0.5528,3.63356 -0.12074,3.44182 -0.0197,3.51237 1.11467,0.77792 0.68608,-1.65394 2.07743,-7.79991 3.09189,-13.65773 1.41469,-8.16912 2.2116,-10.09533 3.42031,-8.26744 0.86674,1.31073 2.51693,3.62856 3.66712,5.15073 2.75109,3.64086 2.21436,8.58207 -0.78983,7.27143 -3.11477,-1.3589 -4.03832,0.69216 -1.50041,3.33214 1.76727,1.83833 1.54453,3.49197 -1.2233,9.08201 -2.85187,5.75976 -2.92755,6.3935 -0.48125,4.03027 1.5965,-1.54229 4.60257,-3.13136 6.68018,-3.53125 3.64328,-0.70135 3.62997,-0.64332 -0.37551,1.63208 -2.2841,1.29756 -4.83601,3.09513 -5.67087,3.9946 -0.83486,0.89948 -2.27812,1.4177 -3.20723,1.1516 -0.92913,-0.26611 -3.14042,0.83811 -4.91401,2.45381 -3.02301,2.75388 -3.80236,2.87773 -12.46086,1.98013 -6.38446,-0.66188 -12.68126,-0.22003 -20.39417,1.43106 -13.2163,2.82925 -17.60674,4.93494 -16.90536,8.10829 0.46428,2.10057 -1.71851,2.9271 -21.7809,8.24747 -12.26328,3.25212 -23.79317,6.80824 -25.62195,7.90249 -5.38632,3.22289 -13.4634,4.5488 -13.9622,2.29202 z m 1.38177,-8.37629 c -1.62104,-1.09754 -1.71122,-1.66299 -0.38154,-2.39247 0.95764,-0.5254 1.80187,-3.99828 1.87607,-7.71752 0.13918,-6.97832 3.443,-10.07984 5.65371,-5.30751 2.31892,5.00592 6.74756,7.44335 11.55751,6.36098 8.95179,-2.0145 10.8,-3.62838 10.64628,-9.29684 -0.0877,-3.23462 0.67318,-5.47787 1.9541,-5.76099 1.15375,-0.25501 2.26256,0.28203 2.464,1.19342 0.20144,0.91137 2.89295,2.23136 5.98112,2.9333 5.54475,1.2603 5.81992,1.18499 22.03891,-6.03076 13.71466,-6.10165 16.33551,-7.70751 15.88743,-9.73478 -0.29512,-1.33525 0.0675,-2.95116 0.80578,-3.59088 0.7383,-0.63973 0.94533,-2.08227 0.46006,-3.20565 -0.48808,-1.12994 0.233,-2.50842 1.61394,-3.08531 1.37292,-0.57355 2.68861,-0.27205 2.92375,0.66999 0.23515,0.94202 2.12991,2.33149 4.21057,3.08765 3.54815,1.2895 4.40079,1.00265 13.73215,-4.61967 10.39116,-6.26087 12.16784,-6.13981 9.83052,0.6699 -2.25776,6.57784 -41.14872,23.58828 -103.87519,45.43375 -3.46768,1.20767 -5.97879,1.34152 -7.37917,0.39339 z m 14.00149,-32.20541 c 7.88397,-15.5816 13.70995,-35.50712 14.63206,-50.04342 0.84315,-13.29142 -3.19683,-30.45971 -8.86786,-37.68489 -3.08901,-3.93554 -3.10694,-4.55502 -0.43204,-14.92744 2.36826,-9.18344 2.45984,-12.35054 0.60496,-20.92274 -1.75115,-8.09251 -1.74262,-10.19918 0.0426,-10.59375 1.51687,-0.33526 2.53752,0.85631 3.19671,3.73204 l 0.96825,4.22459 2.0264,-3.68617 2.02638,-3.68615 4.18352,3.32138 c 6.50389,5.16362 17.86982,19.18875 25.09273,30.9635 5.69462,9.28334 7.09133,13.03533 10.5226,28.26691 4.1496,18.4209 4.28096,31.29421 0.47918,47.01242 -2.36852,9.79253 -1.577,10.43446 3.90685,3.16843 7.37127,-9.76684 14.18278,-25.17758 16.03167,-36.27095 1.77521,-10.65127 -1.01932,-28.46756 -5.97035,-38.06331 -2.1224,-4.11352 -2.0616,-5.66251 0.47565,-12.11528 2.3361,-5.94114 2.57155,-8.92662 1.19513,-15.15411 -1.70694,-7.72285 -0.42987,-10.74592 2.3941,-5.66721 1.44753,2.6033 1.5443,2.59365 3.97565,-0.39664 2.45584,-3.02041 2.55214,-2.99102 6.63474,2.02457 21.51611,26.43303 27.74193,63.52984 15.67332,93.39035 -2.76152,6.83264 -3.95291,8.28544 -7.07405,8.62612 -12.93666,1.41218 -22.10889,4.43691 -33.12545,10.92382 -7.08401,4.17128 -10.98529,5.91212 -10.15713,4.53236 1.09369,-1.82216 0.56043,-2.23942 -2.85777,-2.23604 -10.20817,0.01 -34.25024,10.15726 -47.38326,19.99865 -4.05932,3.04189 -3.99362,2.72388 1.80536,-8.73702 z"
           style="fill:#d7e3f4" />
        <path
           transform="matrix(1.0725679,0,0,0.90714788,14.933339,-67.312938)"
           inkscape:connector-curvature="0"
           id="path10471"
           d="m 273.48718,446.72193 c 0.14587,-0.38744 0.70876,-1.84804 1.25088,-3.24578 1.552,-4.00143 2.96783,-8.86702 3.48001,-11.95922 0.25875,-1.56216 0.58931,-3.25348 0.73459,-3.75847 0.35629,-1.23845 0.33952,-7.21966 -0.0209,-7.45329 -0.15677,-0.10163 -0.28504,-0.70383 -0.28504,-1.33822 0,-1.36261 -1.59393,-4.73472 -2.94839,-6.23767 -1.10452,-1.22557 -3.6469,-3.03792 -4.26166,-3.03792 -0.24888,0 -0.53177,-0.13454 -0.62866,-0.29899 -0.0969,-0.16443 -0.48171,-0.29898 -0.85514,-0.29898 -0.37343,0 -0.75824,-0.13454 -0.85513,-0.29897 -0.0969,-0.16444 -0.60998,-0.29898 -1.14018,-0.29898 -0.53021,0 -1.04328,-0.13455 -1.14017,-0.29898 -0.10739,-0.18224 -2.27771,-0.29898 -5.55836,-0.29898 -3.28066,0 -5.45098,0.11674 -5.55837,0.29898 -0.0969,0.16443 -0.4817,0.29898 -0.85513,0.29898 -0.37344,0 -0.75825,0.13454 -0.85514,0.29898 -0.0969,0.16443 -0.48169,0.29897 -0.85513,0.29897 -0.37342,0 -0.75823,0.13455 -0.85513,0.29898 -0.0969,0.16445 -0.43547,0.29899 -0.75239,0.29899 -0.91902,0 -3.62419,2.00113 -6.01741,4.45134 -1.39024,1.42333 -2.20909,2.07688 -2.20909,1.76315 0,-0.27423 0.12827,-0.58173 0.28504,-0.68336 0.15677,-0.10163 0.28504,-0.50525 0.28504,-0.89693 0,-0.39169 0.12828,-0.79532 0.28505,-0.89695 0.15678,-0.10163 0.28504,-0.44775 0.28504,-0.76914 0,-0.68244 0.46504,-1.61938 1.32477,-2.66913 0.3367,-0.41109 0.87741,-1.27495 1.2016,-1.91967 1.36118,-2.70704 7.80815,-6.98999 14.42427,-9.58257 2.99503,-1.17362 10.23007,-3.14019 13.83414,-3.76028 2.56377,-0.4411 3.24137,-0.83629 3.95551,-2.30695 1.54523,-3.18216 2.31546,-8.36354 2.31546,-15.57623 0,-10.07592 -1.66414,-15.81952 -4.87598,-16.82885 -1.10245,-0.34645 -1.22013,-0.32617 -1.69775,0.2925 -0.64917,0.84089 -0.92423,3.12282 -0.79555,6.60005 0.0554,1.49597 0.01,2.71988 -0.10159,2.7198 -0.50254,-2.4e-4 -1.77782,-1.84722 -2.78722,-4.03639 -1.42379,-3.08788 -2.58253,-6.77511 -3.71132,-11.80972 -1.6742,-7.46732 -2.69287,-10.16084 -5.53824,-14.64388 -5.85627,-9.22689 -16.47051,-17.90435 -35.36983,-28.91588 -9.40146,-5.47767 -23.57454,-12.99853 -42.75017,-22.68511 -12.20328,-6.16448 -15.60752,-7.96479 -14.67978,-7.76328 0.39194,0.0851 2.12358,0.55838 3.84809,1.05167 9.40343,2.68977 22.21591,5.86881 28.932,7.17862 1.8029,0.35161 4.22168,0.83229 5.37506,1.06818 3.95771,0.80941 6.39873,0.54025 10.69261,-1.179 1.0769,-0.43118 1.99465,-0.78397 2.03945,-0.78397 0.0448,0 0.012,0.54281 -0.0728,1.20625 -0.60909,4.76319 5.86779,6.69367 7.49192,2.23301 0.55834,-1.53347 0.39888,-2.99707 -0.44984,-4.12879 -0.30944,-0.41261 -0.56261,-0.82988 -0.56261,-0.92727 0,-0.0974 1.40441,-0.17708 3.12089,-0.17708 3.5236,0 8.55988,0.62201 12.15455,1.50115 1.33066,0.32544 2.52347,0.59171 2.65069,0.59171 0.12721,0 0.30882,-1.44632 0.40356,-3.21404 0.34185,-6.37873 2.61991,-11.87285 6.44905,-15.55362 1.62138,-1.55855 4.30334,-3.35689 5.00629,-3.35689 0.7334,0 0.8321,0.22353 1.98018,4.48471 0.90498,3.35887 2.18636,5.56206 3.99334,6.86608 3.12197,2.25299 6.23534,2.69647 18.96995,2.70215 10.25475,0.005 15.94529,0.29701 20.52318,1.05467 6.92207,1.14563 15.76633,4.11604 17.62857,5.92071 2.96634,2.87462 1.70896,6.81232 -6.17369,19.33404 -2.12212,3.37101 -4.20574,6.93635 -4.6303,7.92298 -1.72702,4.0135 -2.73625,9.80881 -2.90517,16.68228 -0.0625,2.54287 -0.0778,2.59746 -0.45955,1.6444 -3.30482,-8.24957 -8.23972,-15.55271 -14.21733,-21.0402 -2.6941,-2.4732 -6.20129,-5.17059 -8.48301,-6.52429 l -1.42522,-0.84557 1.14017,0.97523 c 2.43147,2.07969 7.51951,7.7389 9.26409,10.30408 2.24102,3.29511 4.75386,8.45377 5.92974,12.17329 2.09769,6.63538 2.76301,12.12301 2.54032,20.95271 -0.2294,9.09592 -1.21877,14.57139 -4.22454,23.37991 -1.35167,3.96114 -1.93903,5.5007 -5.53264,14.50194 -2.11725,5.30323 -2.87769,7.38931 -3.37863,9.26839 -0.54489,2.04389 -0.61256,6.73607 -0.18327,12.70667 0.17735,2.46658 0.32682,5.35923 0.33217,6.42808 0.015,2.99253 -0.49494,8.03092 -1.00752,9.95569 -0.25394,0.95355 -0.46171,2.05741 -0.46171,2.45305 0,0.96752 -1.97132,6.70431 -3.13314,9.11785 -1.80493,3.74949 -4.99947,8.09404 -7.68688,10.45408 -1.20094,1.05463 -1.40088,1.15035 -1.18059,0.56521 z"
           style="fill:#d7e3f4;fill-opacity:1" />
      </g>
    </g>
  </g>
  <g
     transform="translate(-42.570187,-14.745308)"
     style="font-style:normal;font-variant:normal;font-weight:normal;font-stretch:normal;font-size:40px;line-height:125%;font-family:Stencil;-inkscape-font-specification:Stencil;letter-spacing:0px;word-spacing:0px;fill:#003371;fill-opacity:1;stroke:none;stroke-width:1px;stroke-linecap:butt;stroke-linejoin:miter;stroke-opacity:1"
     id="flowRoot4799">
    <path
       d="m 190.74219,53.793213 -9.77783,0 -0.57129,0 q -0.79102,0 -1.23047,-0.285645 -0.41748,-0.307617 -0.41748,-0.856933 0,-0.900879 0.8789,-1.186524 0.7251,-0.241699 0.83496,-0.285644 0.13184,-0.06592 0.26368,-0.263672 0.26367,-0.351563 0.26367,-1.120606 l 0,-21.994628 q 0,-0.769043 -0.26367,-1.120606 -0.13184,-0.197754 -0.26368,-0.241699 -0.10986,-0.06592 -0.83496,-0.307617 -0.8789,-0.285645 -0.8789,-1.186524 0,-0.549316 0.41748,-0.834961 0.43945,-0.307617 1.23047,-0.307617 l 0.57129,0 9.7998,0 0.74707,0 q 0.9668,0 1.38428,0.263672 0.57129,0.351562 0.57129,0.922852 0,0.966796 -1.05469,1.208496 -0.85693,0.197754 -1.01074,0.263672 -0.15381,0.06592 -0.32959,0.263671 -0.32959,0.395508 -0.32959,1.230469 l 0,25.839844 z m 1.77978,0 0,-2.460938 q 1.07666,-0.197754 1.6919,-0.439453 0.6372,-0.241699 1.20849,-0.703125 0.92285,-0.725097 1.6919,-1.999511 0.76904,-1.274415 1.25244,-2.834473 0.35156,-1.208496 0.63721,-1.582031 0.30761,-0.395508 0.8789,-0.395508 0.61524,0 0.90088,0.505371 0.13184,0.241699 0.13184,0.966797 l 0,8.942871 -8.39356,0 z"
       style="font-size:45px"
       id="path4824"
       inkscape:connector-curvature="0" />
    <path
       d="m 214.73633,23.800537 0,29.992676 -9.77783,0 -0.57129,0 q -0.79102,0 -1.23047,-0.285645 -0.41748,-0.307617 -0.41748,-0.856933 0,-0.900879 0.8789,-1.186524 0.7251,-0.241699 0.83496,-0.285644 0.13184,-0.06592 0.26368,-0.263672 0.26367,-0.351563 0.26367,-1.120606 l 0,-21.994628 q 0,-0.769043 -0.26367,-1.120606 -0.13184,-0.197754 -0.26368,-0.241699 -0.10986,-0.06592 -0.83496,-0.307617 -0.8789,-0.285645 -0.8789,-1.186524 0,-0.549316 0.41748,-0.834961 0.43945,-0.307617 1.23047,-0.307617 l 0.57129,0 9.77783,0 z m 1.95556,0 8.85498,0 0,7.77832 q 0,0.681153 -0.26367,0.98877 -0.26367,0.307617 -0.83496,0.307617 -0.4834,0 -0.70312,-0.197754 -0.21973,-0.197754 -0.41748,-0.812988 -0.83496,-2.548828 -2.46094,-3.88916 -1.604,-1.340332 -4.17481,-1.604004 l 0,-2.570801 z m -0.10986,15.996094 0,-2.548828 q 1.27442,-0.615235 1.88965,-1.340332 0.61523,-0.725098 0.90088,-1.933594 0.17578,-0.834961 0.46142,-1.142578 0.28565,-0.32959 0.81299,-0.32959 0.70313,0 0.9668,0.549316 0.15381,0.285645 0.15381,1.296387 l 0,8.371582 q 0,1.032715 -0.2417,1.428223 -0.21973,0.395508 -0.83496,0.395508 -0.50537,0 -0.79102,-0.307618 -0.28564,-0.307617 -0.46142,-1.032714 -0.37354,-1.516114 -1.07666,-2.329102 -0.68116,-0.812988 -1.77979,-1.07666 z m 0.13184,13.996582 0,-2.373047 q 1.42822,-0.219727 2.35107,-0.615234 0.94483,-0.395508 1.88965,-1.208496 0.94482,-0.812989 1.49414,-1.669922 0.57129,-0.878907 1.07666,-2.307129 0.2417,-0.703125 0.50537,-0.944824 0.26367,-0.263672 0.7251,-0.263672 0.61523,0 0.85693,0.373535 0.2417,0.351562 0.2417,1.252441 l 0,7.756348 -9.14062,0 z"
       style="font-size:45px"
       id="path4826"
       inkscape:connector-curvature="0" />
    <path
       d="m 239.32373,23.207275 0,2.526856 q -1.3623,0.373535 -2.0874,1.164551 -0.70313,0.769043 -0.70313,1.911621 0,1.098633 0.59326,1.933593 0.59327,0.812989 1.9336,1.560059 0.92285,0.505371 4.1748,1.933594 1.97754,0.856933 3.0542,1.560058 1.09864,0.681153 2.06543,1.713868 2.59278,2.724609 2.59278,6.481933 0,2.834473 -1.40625,5.185547 -1.40625,2.351074 -3.86719,3.691406 -1.31836,0.703125 -2.90039,1.098633 -1.56006,0.417481 -2.92237,0.417481 l 0,-2.504883 q 1.91163,-0.461426 2.74659,-1.274414 0.85693,-0.834961 0.85693,-2.241211 0,-1.472168 -1.31836,-2.592774 -0.87891,-0.725097 -3.33984,-1.801757 -2.70264,-1.186524 -3.71338,-1.691895 -0.98877,-0.505371 -1.91162,-1.186523 -4.13086,-2.944336 -4.13086,-7.844239 0,-2.504883 1.03271,-4.614258 1.03272,-2.131347 2.87842,-3.427734 2.5708,-1.801758 6.37207,-1.999512 z m 1.73584,2.526856 0,-2.416992 q 1.31836,0.08789 2.28516,0.351562 0.96679,0.241699 2.74658,0.98877 0.43945,0.175781 0.7251,0.175781 0.41748,0 0.61523,-0.285645 l 0.4834,-0.637207 q 0.35156,-0.483398 0.85693,-0.483398 0.59326,0 0.85694,0.439453 0.28564,0.417481 0.28564,1.340332 l 0,7.250977 q 0,0.637207 -0.37353,1.054687 -0.35157,0.395508 -0.92286,0.395508 -0.43945,0 -0.81298,-0.285645 -0.19776,-0.175781 -0.32959,-0.41748 -0.10987,-0.263672 -0.21973,-0.856934 -0.2417,-1.07666 -0.83496,-2.219238 -0.59326,-1.142578 -1.38428,-2.043457 -1.58203,-1.779785 -3.97705,-2.351074 z m -2.87842,26.147461 0,2.504883 q -1.80176,0 -3.97705,-1.032715 -0.81299,-0.373535 -1.1206,-0.483399 -0.30762,-0.109863 -0.59327,-0.109863 -0.43945,0 -0.65918,0.153809 -0.21972,0.131836 -0.70312,0.703125 -0.39551,0.483398 -0.85693,0.483398 -1.23047,0 -1.23047,-1.889648 l 0,-7.998047 q 0,-0.615235 0.35156,-1.032715 0.35156,-0.439453 0.87891,-0.461426 0.48339,-0.02197 0.74707,0.285645 0.28564,0.285644 0.48339,1.032715 0.50538,1.889648 1.4502,3.537597 0.9668,1.647949 2.24121,2.790528 1.29639,1.186523 2.98828,1.516113 z"
       style="font-size:45px"
       id="path4828"
       inkscape:connector-curvature="0" />
    <path
       d="m 275.79834,23.207275 0,2.526856 q -1.3623,0.373535 -2.0874,1.164551 -0.70313,0.769043 -0.70313,1.911621 0,1.098633 0.59326,1.933593 0.59327,0.812989 1.9336,1.560059 0.92285,0.505371 4.1748,1.933594 1.97754,0.856933 3.0542,1.560058 1.09863,0.681153 2.06543,1.713868 2.59277,2.724609 2.59277,6.481933 0,2.834473 -1.40625,5.185547 -1.40625,2.351074 -3.86718,3.691406 -1.31836,0.703125 -2.90039,1.098633 -1.56006,0.417481 -2.92237,0.417481 l 0,-2.504883 q 1.91162,-0.461426 2.74659,-1.274414 0.85693,-0.834961 0.85693,-2.241211 0,-1.472168 -1.31836,-2.592774 -0.87891,-0.725097 -3.33984,-1.801757 -2.70264,-1.186524 -3.71338,-1.691895 -0.98877,-0.505371 -1.91162,-1.186523 -4.13086,-2.944336 -4.13086,-7.844239 0,-2.504883 1.03271,-4.614258 1.03272,-2.131347 2.87842,-3.427734 2.5708,-1.801758 6.37207,-1.999512 z m 1.73584,2.526856 0,-2.416992 q 1.31836,0.08789 2.28516,0.351562 0.96679,0.241699 2.74658,0.98877 0.43945,0.175781 0.7251,0.175781 0.41748,0 0.61523,-0.285645 l 0.4834,-0.637207 q 0.35156,-0.483398 0.85693,-0.483398 0.59326,0 0.85694,0.439453 0.28564,0.417481 0.28564,1.340332 l 0,7.250977 q 0,0.637207 -0.37354,1.054687 -0.35156,0.395508 -0.92285,0.395508 -0.43945,0 -0.81298,-0.285645 -0.19776,-0.175781 -0.32959,-0.41748 -0.10987,-0.263672 -0.21973,-0.856934 -0.2417,-1.07666 -0.83496,-2.219238 -0.59326,-1.142578 -1.38428,-2.043457 -1.58203,-1.779785 -3.97705,-2.351074 z m -2.87842,26.147461 0,2.504883 q -1.80176,0 -3.97705,-1.032715 -0.81299,-0.373535 -1.1206,-0.483399 -0.30762,-0.109863 -0.59327,-0.109863 -0.43945,0 -0.65918,0.153809 -0.21972,0.131836 -0.70312,0.703125 -0.39551,0.483398 -0.85693,0.483398 -1.23047,0 -1.23047,-1.889648 l 0,-7.998047 q 0,-0.615235 0.35156,-1.032715 0.35156,-0.439453 0.87891,-0.461426 0.48339,-0.02197 0.74707,0.285645 0.28564,0.285644 0.48339,1.032715 0.50538,1.889648 1.4502,3.537597 0.9668,1.647949 2.24121,2.790528 1.29639,1.186523 2.98828,1.516113 z"
       style="font-size:45px"
       id="path4830"
       inkscape:connector-curvature="0" />
    <path
       d="m 302.89062,23.800537 0,29.992676 -9.77783,0 -0.57129,0 q -0.79101,0 -1.23046,-0.285645 -0.41749,-0.307617 -0.41749,-0.856933 0,-0.900879 0.87891,-1.186524 0.7251,-0.241699 0.83496,-0.285644 0.13184,-0.06592 0.26367,-0.263672 0.26368,-0.351563 0.26368,-1.120606 l 0,-21.994628 q 0,-0.769043 -0.26368,-1.120606 -0.13183,-0.197754 -0.26367,-0.241699 -0.10986,-0.06592 -0.83496,-0.307617 -0.87891,-0.285645 -0.87891,-1.186524 0,-0.549316 0.41749,-0.834961 0.43945,-0.307617 1.23046,-0.307617 l 0.57129,0 9.77783,0 z m 1.95557,0 8.85498,0 0,7.77832 q 0,0.681153 -0.26367,0.98877 -0.26367,0.307617 -0.83496,0.307617 -0.4834,0 -0.70313,-0.197754 -0.21972,-0.197754 -0.41748,-0.812988 -0.83496,-2.548828 -2.46093,-3.88916 -1.60401,-1.340332 -4.17481,-1.604004 l 0,-2.570801 z m -0.10986,15.996094 0,-2.548828 q 1.27441,-0.615235 1.88965,-1.340332 0.61523,-0.725098 0.90088,-1.933594 0.17578,-0.834961 0.46142,-1.142578 0.28565,-0.32959 0.81299,-0.32959 0.70312,0 0.9668,0.549316 0.1538,0.285645 0.1538,1.296387 l 0,8.371582 q 0,1.032715 -0.24169,1.428223 -0.21973,0.395508 -0.83497,0.395508 -0.50537,0 -0.79101,-0.307618 -0.28565,-0.307617 -0.46143,-1.032714 -0.37353,-1.516114 -1.07666,-2.329102 -0.68115,-0.812988 -1.77978,-1.07666 z m 0.13183,13.996582 0,-2.373047 q 1.42823,-0.219727 2.35108,-0.615234 0.94482,-0.395508 1.88965,-1.208496 0.94482,-0.812989 1.49414,-1.669922 0.57129,-0.878907 1.07666,-2.307129 0.2417,-0.703125 0.50537,-0.944824 0.26367,-0.263672 0.7251,-0.263672 0.61523,0 0.85693,0.373535 0.2417,0.351562 0.2417,1.252441 l 0,7.756348 -9.14063,0 z"
       style="font-size:45px"
       id="path4832"
       inkscape:connector-curvature="0" />
    <path
       d="m 329.3457,23.800537 0,25.817871 q 0,0.856934 0.32959,1.230469 0.17578,0.219727 0.32959,0.285644 0.15381,0.04395 1.01074,0.263672 1.05469,0.2417 1.05469,1.208496 0,0.57129 -0.57129,0.922852 -0.41748,0.263672 -1.38427,0.263672 l -0.74707,0 -9.79981,0 -0.57129,0 q -0.79101,0 -1.23047,-0.285645 -0.41748,-0.307617 -0.41748,-0.856933 0,-0.900879 0.87891,-1.186524 0.7251,-0.241699 0.83496,-0.285644 0.13184,-0.06592 0.26367,-0.263672 0.26367,-0.351563 0.26367,-1.120606 l 0,-21.994628 q 0,-0.769043 -0.26367,-1.120606 -0.13183,-0.197754 -0.26367,-0.241699 -0.10986,-0.06592 -0.83496,-0.307617 -0.87891,-0.285645 -0.87891,-1.186524 0,-0.549316 0.41748,-0.834961 0.43946,-0.307617 1.23047,-0.307617 l 0.57129,0 9.77783,0 z m 6.74561,15.292969 q 2.02148,0.307617 3.09814,0.681152 1.09864,0.373535 1.97754,1.010742 0.92285,0.681153 1.40625,1.625977 0.50537,0.944824 0.50537,1.999512 l 0,4.54834 q 0,0.703125 0.46143,0.703125 0.17578,0 0.28564,-0.08789 0.13184,-0.109863 0.35157,-0.395508 0.54931,-0.74707 1.1206,-0.74707 0.37354,0 0.74707,0.395508 0.37354,0.395507 0.37354,0.791015 0,0.681153 -0.65918,1.669922 -0.63721,0.966797 -1.60401,1.73584 -0.90088,0.725098 -1.95556,1.032715 -1.05469,0.32959 -2.48291,0.32959 -2.90039,0 -4.52637,-1.64795 -1.62598,-1.669921 -1.62598,-4.63623 l 0,-3.691406 q 0,-1.230469 -0.022,-1.428223 -0.10986,-0.878906 -0.61523,-1.516113 -0.63721,-0.769043 -1.82373,-0.900879 l 0,-2.351074 q 1.18652,-0.175782 1.69189,-0.615235 0.43945,-0.395508 0.59326,-0.900879 0.17578,-0.505371 0.17578,-1.49414 l 0,-5.822754 q 0,-1.384278 -0.54931,-2.06543 -0.52735,-0.681152 -1.9336,-1.07666 l 0,-2.438965 0.57129,0 q 2.43897,0 4.15283,0.175781 2.54883,0.2417 4.54834,1.669922 2.87842,2.043457 2.87842,5.822754 0,3.098145 -1.93359,5.075684 -0.81299,0.834961 -1.91162,1.362304 -1.07666,0.527344 -3.2959,1.186524 z"
       style="font-size:45px"
       id="path4834"
       inkscape:connector-curvature="0" />
    <path
       d="m 365.24902,46.102783 -2.0874,7.69043 -5.77881,0 -7.82226,-26.257324 q -0.17578,-0.593262 -0.32959,-0.791016 -0.15381,-0.219727 -0.4834,-0.373535 -0.70313,-0.285645 -0.92285,-0.527344 -0.21973,-0.241699 -0.21973,-0.725098 0,-0.659179 0.59326,-1.032714 0.46143,-0.285645 1.51612,-0.285645 l 9.77783,0 q 0.92285,0 1.25244,0.04395 0.35156,0.04395 0.57129,0.175782 0.21972,0.153808 0.37353,0.439453 0.15381,0.285644 0.15381,0.549316 0,0.812988 -0.76904,1.164551 -0.57129,0.285645 -0.79102,0.593262 -0.19775,0.285644 -0.19775,0.834961 0,0.351562 0.0659,0.615234 l 5.09765,17.885742 z m 0.83496,-3.14209 -1.16455,-4.130859 2.52686,-9.250488 q 0.2417,-0.878907 0.26367,-1.07666 0.0439,-0.483399 -0.21973,-1.076661 -0.35156,-0.769043 -1.09863,-1.010742 l -0.7251,-0.263672 q -0.85693,-0.285644 -0.85693,-1.120605 0,-0.593262 0.4834,-0.900879 0.4834,-0.32959 1.34033,-0.32959 l 5.3833,0 q 1.01074,0 1.31836,0.197754 0.52734,0.32959 0.52734,0.944824 0,0.417481 -0.17578,0.65918 -0.15381,0.241699 -0.59326,0.439453 l -1.1206,0.527344 q -0.70313,0.32959 -1.36231,1.318359 -0.63721,0.966797 -0.98877,2.219238 l -3.5376,12.854004 z"
       style="font-size:45px"
       id="path4836"
       inkscape:connector-curvature="0" />
    <path
       d="m 387.99072,53.793213 -9.7998,0 -0.57129,0 q -0.79102,0 -1.23047,-0.285645 -0.41748,-0.307617 -0.41748,-0.856933 0,-0.900879 0.87891,-1.186524 0.72509,-0.241699 0.83496,-0.285644 0.13183,-0.06592 0.26367,-0.263672 0.26367,-0.351563 0.26367,-1.120606 l 0,-21.994628 q 0,-0.769043 -0.26367,-1.120606 -0.13184,-0.197754 -0.26367,-0.241699 -0.10987,-0.06592 -0.83496,-0.307617 -0.87891,-0.285645 -0.87891,-1.186524 0,-0.549316 0.41748,-0.834961 0.43945,-0.307617 1.23047,-0.307617 l 0.57129,0 9.7998,0 0.57129,0 q 0.79102,0 1.2085,0.307617 0.43945,0.285645 0.43945,0.834961 0,0.900879 -0.87891,1.186524 -0.72509,0.241699 -0.85693,0.307617 -0.10986,0.04394 -0.2417,0.241699 -0.26367,0.351563 -0.26367,1.120606 l 0,21.994628 q 0,0.769043 0.26367,1.120606 0.13184,0.197754 0.2417,0.263672 0.13184,0.04395 0.85693,0.285644 0.87891,0.285645 0.87891,1.186524 0,0.549316 -0.43945,0.856933 -0.41748,0.285645 -1.2085,0.285645 l -0.57129,0 z"
       style="font-size:45px"
       id="path4838"
       inkscape:connector-curvature="0" />
    <path
       d="m 405.89844,23.207275 0,2.658692 q -1.29639,0.197754 -1.9336,1.142578 -0.6372,0.944824 -0.6372,2.702637 l 0,18.149414 0,0.944824 q 0,0.505371 0.19775,1.07666 0.21973,0.549316 0.54932,0.944824 0.35156,0.439453 0.74707,0.637207 0.39551,0.175782 1.07666,0.2417 l 0,2.680664 q -4.2627,0 -7.40479,-2.219239 -2.76855,-1.955566 -4.1748,-5.251465 -1.40625,-3.317871 -1.40625,-7.844238 0,-3.317871 0.90088,-6.174316 0.92285,-2.878418 2.65869,-4.987793 1.75781,-2.131348 4.19678,-3.427735 2.46093,-1.296386 4.72412,-1.296386 l 0.50537,0.02197 z m 1.73584,2.680664 0,-2.658691 q 1.07666,0.175781 1.73584,0.373535 0.68115,0.197754 2.43896,0.834961 1.12061,0.395508 1.49414,0.395508 0.63721,0 0.9668,-0.571289 l 0.28564,-0.527344 q 0.26368,-0.527344 0.98877,-0.527344 0.59327,0 0.90088,0.351563 0.32959,0.351562 0.32959,1.032715 l 0,9.140625 q 0,0.878906 -0.39551,1.274414 -0.3955,0.395508 -0.90087,0.395508 -0.52735,0 -0.85694,-0.32959 -0.30762,-0.351563 -0.50537,-1.120606 -0.46142,-1.73584 -0.90088,-2.724609 -0.94482,-2.087402 -2.15332,-3.383789 -0.81299,-0.878906 -1.62597,-1.340332 -0.81299,-0.483399 -1.80176,-0.615235 z m 0.0659,28.498536 0,-2.680664 q 1.71386,-0.131836 3.60351,-1.296387 1.01074,-0.637207 1.80176,-1.691895 0.79101,-1.07666 1.18652,-2.351074 0.21973,-0.703125 0.50537,-0.988769 0.30762,-0.307618 0.79102,-0.307618 0.52734,0 0.87891,0.395508 0.35156,0.395508 0.35156,0.98877 0,0.988769 -0.76905,2.395019 -0.74707,1.40625 -1.93359,2.592774 -1.45019,1.450195 -2.98828,2.15332 -1.51611,0.703125 -3.42773,0.791016 z"
       style="font-size:45px"
       id="path4840"
       inkscape:connector-curvature="0" />
    <path
       d="m 432.08984,23.800537 0,29.992676 -9.77783,0 -0.57129,0 q -0.79101,0 -1.23047,-0.285645 -0.41748,-0.307617 -0.41748,-0.856933 0,-0.900879 0.87891,-1.186524 0.7251,-0.241699 0.83496,-0.285644 0.13184,-0.06592 0.26367,-0.263672 0.26367,-0.351563 0.26367,-1.120606 l 0,-21.994628 q 0,-0.769043 -0.26367,-1.120606 -0.13183,-0.197754 -0.26367,-0.241699 -0.10986,-0.06592 -0.83496,-0.307617 -0.87891,-0.285645 -0.87891,-1.186524 0,-0.549316 0.41748,-0.834961 0.43946,-0.307617 1.23047,-0.307617 l 0.57129,0 9.77783,0 z m 1.95557,0 8.85498,0 0,7.77832 q 0,0.681153 -0.26367,0.98877 -0.26367,0.307617 -0.83496,0.307617 -0.4834,0 -0.70313,-0.197754 -0.21972,-0.197754 -0.41748,-0.812988 -0.83496,-2.548828 -2.46094,-3.88916 -1.604,-1.340332 -4.1748,-1.604004 l 0,-2.570801 z m -0.10986,15.996094 0,-2.548828 q 1.27441,-0.615235 1.88965,-1.340332 0.61523,-0.725098 0.90087,-1.933594 0.17579,-0.834961 0.46143,-1.142578 0.28564,-0.32959 0.81299,-0.32959 0.70312,0 0.9668,0.549316 0.1538,0.285645 0.1538,1.296387 l 0,8.371582 q 0,1.032715 -0.2417,1.428223 -0.21972,0.395508 -0.83496,0.395508 -0.50537,0 -0.79101,-0.307618 -0.28565,-0.307617 -0.46143,-1.032714 -0.37353,-1.516114 -1.07666,-2.329102 -0.68115,-0.812988 -1.77978,-1.07666 z m 0.13183,13.996582 0,-2.373047 q 1.42823,-0.219727 2.35108,-0.615234 0.94482,-0.395508 1.88965,-1.208496 0.94482,-0.812989 1.49414,-1.669922 0.57129,-0.878907 1.07666,-2.307129 0.2417,-0.703125 0.50537,-0.944824 0.26367,-0.263672 0.72509,-0.263672 0.61524,0 0.85694,0.373535 0.2417,0.351562 0.2417,1.252441 l 0,7.756348 -9.14063,0 z"
       style="font-size:45px"
       id="path4842"
       inkscape:connector-curvature="0" />
    <path
       d="m 456.67725,23.207275 0,2.526856 q -1.36231,0.373535 -2.08741,1.164551 -0.70312,0.769043 -0.70312,1.911621 0,1.098633 0.59326,1.933593 0.59326,0.812989 1.93359,1.560059 0.92286,0.505371 4.17481,1.933594 1.97754,0.856933 3.0542,1.560058 1.09863,0.681153 2.06543,1.713868 2.59277,2.724609 2.59277,6.481933 0,2.834473 -1.40625,5.185547 -1.40625,2.351074 -3.86719,3.691406 -1.31836,0.703125 -2.90039,1.098633 -1.56006,0.417481 -2.92236,0.417481 l 0,-2.504883 q 1.91162,-0.461426 2.74658,-1.274414 0.85694,-0.834961 0.85694,-2.241211 0,-1.472168 -1.31836,-2.592774 -0.87891,-0.725097 -3.33985,-1.801757 -2.70263,-1.186524 -3.71338,-1.691895 -0.98877,-0.505371 -1.91162,-1.186523 -4.13086,-2.944336 -4.13086,-7.844239 0,-2.504883 1.03272,-4.614258 1.03271,-2.131347 2.87842,-3.427734 2.5708,-1.801758 6.37207,-1.999512 z m 1.73584,2.526856 0,-2.416992 q 1.31836,0.08789 2.28515,0.351562 0.9668,0.241699 2.74658,0.98877 0.43946,0.175781 0.7251,0.175781 0.41748,0 0.61524,-0.285645 l 0.48339,-0.637207 q 0.35157,-0.483398 0.85694,-0.483398 0.59326,0 0.85693,0.439453 0.28565,0.417481 0.28565,1.340332 l 0,7.250977 q 0,0.637207 -0.37354,1.054687 -0.35156,0.395508 -0.92285,0.395508 -0.43945,0 -0.81299,-0.285645 -0.19775,-0.175781 -0.32959,-0.41748 -0.10986,-0.263672 -0.21973,-0.856934 -0.24169,-1.07666 -0.83496,-2.219238 -0.59326,-1.142578 -1.38427,-2.043457 -1.58203,-1.779785 -3.97705,-2.351074 z m -2.87842,26.147461 0,2.504883 q -1.80176,0 -3.97705,-1.032715 -0.81299,-0.373535 -1.12061,-0.483399 -0.30762,-0.109863 -0.59326,-0.109863 -0.43945,0 -0.65918,0.153809 -0.21973,0.131836 -0.70312,0.703125 -0.39551,0.483398 -0.85694,0.483398 -1.23047,0 -1.23047,-1.889648 l 0,-7.998047 q 0,-0.615235 0.35157,-1.032715 0.35156,-0.439453 0.8789,-0.461426 0.4834,-0.02197 0.74707,0.285645 0.28565,0.285644 0.4834,1.032715 0.50537,1.889648 1.4502,3.537597 0.96679,1.647949 2.24121,2.790528 1.29638,1.186523 2.98828,1.516113 z"
       style="font-size:45px"
       id="path4844"
       inkscape:connector-curvature="0" />
    <path
       d="m 414.74219,80.050537 0,29.992673 -9.77783,0 -0.57129,0 q -0.79102,0 -1.23047,-0.28564 -0.41748,-0.30762 -0.41748,-0.85694 0,-0.90087 0.8789,-1.18652 0.7251,-0.2417 0.83496,-0.28564 0.13184,-0.0659 0.26368,-0.26368 0.26367,-0.35156 0.26367,-1.1206 l 0,-21.994629 q 0,-0.769043 -0.26367,-1.120606 -0.13184,-0.197754 -0.26368,-0.241699 -0.10986,-0.06592 -0.83496,-0.307617 -0.8789,-0.285645 -0.8789,-1.186524 0,-0.549316 0.41748,-0.834961 0.43945,-0.307617 1.23047,-0.307617 l 0.57129,0 9.77783,0 z m 4.43847,23.708493 0,-17.336423 q 0,-1.604003 -0.46142,-2.548828 -0.28565,-0.615234 -0.70313,-0.900879 -0.41748,-0.285644 -1.31836,-0.483398 l 0,-2.438965 q 1.16455,0 1.97754,0.08789 2.79053,0.307617 5.40528,2.373047 2.59277,1.999511 3.84521,5.207519 1.29639,3.251953 1.29639,7.207031 0,4.482422 -1.64795,7.976076 -1.64795,3.47168 -4.72412,5.47119 -1.49414,0.9668 -2.79053,1.31836 -1.27441,0.35156 -3.36182,0.35156 l 0,-2.37304 q 0.92286,-0.2417 1.27442,-0.43946 0.37353,-0.19775 0.6372,-0.61523 0.32959,-0.4834 0.43946,-1.07666 0.13183,-0.61524 0.13183,-1.77979 z"
       style="font-size:45px"
       id="path4846"
       inkscape:connector-curvature="0" />
    <path
       d="m 443.92187,80.050537 0,29.992673 -9.77783,0 -0.57129,0 q -0.79101,0 -1.23046,-0.28564 -0.41749,-0.30762 -0.41749,-0.85694 0,-0.90087 0.87891,-1.18652 0.7251,-0.2417 0.83496,-0.28564 0.13184,-0.0659 0.26367,-0.26368 0.26368,-0.35156 0.26368,-1.1206 l 0,-21.994629 q 0,-0.769043 -0.26368,-1.120606 -0.13183,-0.197754 -0.26367,-0.241699 -0.10986,-0.06592 -0.83496,-0.307617 -0.87891,-0.285645 -0.87891,-1.186524 0,-0.549316 0.41749,-0.834961 0.43945,-0.307617 1.23046,-0.307617 l 0.57129,0 9.77783,0 z m 1.95557,0 8.85498,0 0,7.77832 q 0,0.681153 -0.26367,0.98877 -0.26367,0.307617 -0.83496,0.307617 -0.4834,0 -0.70313,-0.197754 -0.21972,-0.197754 -0.41748,-0.812988 -0.83496,-2.548828 -2.46093,-3.88916 -1.60401,-1.340332 -4.17481,-1.604004 l 0,-2.570801 z m -0.10986,15.996094 0,-2.548828 q 1.27441,-0.615235 1.88965,-1.340332 0.61523,-0.725098 0.90088,-1.933594 0.17578,-0.834961 0.46142,-1.142578 0.28565,-0.32959 0.81299,-0.32959 0.70312,0 0.9668,0.549316 0.1538,0.285645 0.1538,1.296387 l 0,8.371582 q 0,1.032716 -0.24169,1.428226 -0.21973,0.3955 -0.83497,0.3955 -0.50537,0 -0.79101,-0.30761 -0.28565,-0.30762 -0.46143,-1.032717 -0.37353,-1.516114 -1.07666,-2.329102 -0.68115,-0.812988 -1.77978,-1.07666 z m 0.13183,13.996579 0,-2.37304 q 1.42823,-0.21973 2.35108,-0.61524 0.94482,-0.39551 1.88965,-1.20849 0.94482,-0.81299 1.49414,-1.66993 0.57129,-0.8789 1.07666,-2.30713 0.2417,-0.70312 0.50537,-0.94482 0.26367,-0.26367 0.7251,-0.26367 0.61523,0 0.85693,0.37353 0.2417,0.35157 0.2417,1.25245 l 0,7.75634 -9.14063,0 z"
       style="font-size:45px"
       id="path4848"
       inkscape:connector-curvature="0" />
    <path
       d="m 481.62695,110.04321 -9.77783,0 -0.57129,0 q -0.79101,0 -1.23047,-0.28564 -0.41748,-0.30762 -0.41748,-0.85694 0,-0.90087 0.87891,-1.18652 0.7251,-0.2417 0.83496,-0.28564 0.13184,-0.0659 0.26367,-0.26368 0.26367,-0.35156 0.26367,-1.1206 l 0,-21.994629 q 0,-0.769043 -0.26367,-1.120606 -0.13183,-0.197754 -0.26367,-0.241699 -0.10986,-0.06592 -0.83496,-0.307617 -0.87891,-0.285645 -0.87891,-1.186524 0,-0.549316 0.41748,-0.834961 0.43946,-0.307617 1.23047,-0.307617 l 0.57129,0 9.79981,0 0.74707,0 q 0.96679,0 1.38427,0.263672 0.57129,0.351562 0.57129,0.922852 0,0.966796 -1.05469,1.208496 -0.85693,0.197754 -1.01074,0.263672 -0.15381,0.06592 -0.32959,0.263671 -0.32959,0.395508 -0.32959,1.230469 l 0,25.839841 z m 1.77979,0 0,-2.46093 q 1.07666,-0.19776 1.69189,-0.43946 0.63721,-0.2417 1.2085,-0.70312 0.92285,-0.7251 1.69189,-1.99951 0.76905,-1.27442 1.25244,-2.83448 0.35157,-1.20849 0.63721,-1.58203 0.30762,-0.395506 0.87891,-0.395506 0.61523,0 0.90088,0.505366 0.13183,0.2417 0.13183,0.9668 l 0,8.94287 -8.39355,0 z"
       style="font-size:45px"
       id="path4850"
       inkscape:connector-curvature="0" />
    <path
       d="m 502.43506,80.050537 8.85498,0 6.1084,25.817873 q 0.17578,0.68115 0.39551,1.20849 0.19775,0.41748 0.8789,0.68116 0.57129,0.2417 0.79102,0.4834 0.21972,0.24169 0.21972,0.65917 0,1.14258 -1.71386,1.14258 l -10.96436,0 q -0.65918,0 -1.05469,-0.30761 -0.3955,-0.32959 -0.3955,-0.85694 0,-0.43945 0.17578,-0.65918 0.17578,-0.21972 0.79101,-0.54931 0.43946,-0.21973 0.61524,-0.4834 0.17578,-0.26367 0.17578,-0.65918 0,-0.37354 -0.0659,-0.65918 l -0.70312,-3.18604 -6.13038,0 0.59327,-2.61474 4.92187,0 -4.04297,-17.863773 0.54932,-2.15332 z m -1.51611,5.581055 1.1206,4.54834 -3.88916,14.194338 q -0.17578,0.61523 -0.17578,1.14258 0,1.38427 1.29639,1.97753 l 0.76904,0.35157 q 0.7251,0.32959 0.7251,1.09863 0,1.09863 -1.60401,1.09863 l -5.58105,0 q -0.81299,0 -1.29639,-0.32959 -0.46142,-0.35156 -0.46142,-0.94482 0,-0.63721 0.96679,-1.05469 0.90088,-0.39551 1.31836,-0.70312 0.43945,-0.32959 0.83496,-0.87891 0.61524,-0.90088 1.01074,-2.39502 l 4.96583,-18.105468 z"
       style="font-size:45px"
       id="path4852"
       inkscape:connector-curvature="0" />
    <path
       d="m 552.37891,80.050537 9.75586,0 0.59326,0 q 1.64795,0 1.64795,1.142578 0,0.900879 -0.87891,1.186524 -0.7251,0.241699 -0.85693,0.307617 -0.10987,0.04394 -0.2417,0.241699 -0.26367,0.351563 -0.26367,1.120606 l 0,21.994629 q 0,0.76904 0.26367,1.1206 0.13183,0.19776 0.2417,0.26368 0.13183,0.0439 0.85693,0.28564 0.87891,0.28565 0.87891,1.18652 0,1.14258 -1.64795,1.14258 l -0.59326,0 -9.77784,0 -0.72509,0 q -0.9668,0 -1.47217,-0.28564 -0.4834,-0.30762 -0.4834,-0.90088 0,-0.9668 1.05469,-1.2085 0.85693,-0.21972 1.01074,-0.26367 0.15381,-0.0659 0.30762,-0.26367 0.32959,-0.39551 0.32959,-1.25244 l 0,-25.817873 z m -8.08594,0 4.32861,12.32666 1.91162,-6.657715 0,7.294922 -5.07568,17.028806 -1.16455,0 -8.52539,-25.290524 q -0.43946,-1.274415 -0.92285,-1.713868 -0.28565,-0.285644 -0.98877,-0.41748 -1.42823,-0.307617 -1.42823,-1.362305 0,-0.571289 0.39551,-0.878906 0.41748,-0.32959 1.18653,-0.32959 l 10.2832,0 z m -8.52539,10.107422 2.3291,6.635742 0,6.613769 q 0,1.01074 0.0659,1.4502 0.0879,0.43945 0.35156,0.96679 0.46143,0.9668 1.27441,1.4502 l 0.81299,0.52734 q 0.83496,0.50537 0.83496,1.12061 0,1.1206 -1.64795,1.1206 l -5.51513,0 q -1.64795,0 -1.64795,-1.09863 0,-0.35156 0.13183,-0.52734 0.15381,-0.19776 0.57129,-0.43946 2.43897,-1.31836 2.43897,-4.57031 l 0,-13.249511 z"
       style="font-size:45px"
       id="path4854"
       inkscape:connector-curvature="0" />
    <path
       d="m 579.97656,80.050537 0,29.992673 -9.77783,0 -0.57129,0 q -0.79101,0 -1.23047,-0.28564 -0.41748,-0.30762 -0.41748,-0.85694 0,-0.90087 0.87891,-1.18652 0.7251,-0.2417 0.83496,-0.28564 0.13184,-0.0659 0.26367,-0.26368 0.26367,-0.35156 0.26367,-1.1206 l 0,-21.994629 q 0,-0.769043 -0.26367,-1.120606 -0.13183,-0.197754 -0.26367,-0.241699 -0.10986,-0.06592 -0.83496,-0.307617 -0.87891,-0.285645 -0.87891,-1.186524 0,-0.549316 0.41748,-0.834961 0.43946,-0.307617 1.23047,-0.307617 l 0.57129,0 9.77783,0 z m 1.95557,0 8.85498,0 0,7.77832 q 0,0.681153 -0.26367,0.98877 -0.26367,0.307617 -0.83496,0.307617 -0.4834,0 -0.70313,-0.197754 -0.21973,-0.197754 -0.41748,-0.812988 -0.83496,-2.548828 -2.46094,-3.88916 -1.604,-1.340332 -4.1748,-1.604004 l 0,-2.570801 z m -0.10986,15.996094 0,-2.548828 q 1.27441,-0.615235 1.88964,-1.340332 0.61524,-0.725098 0.90088,-1.933594 0.17578,-0.834961 0.46143,-1.142578 0.28564,-0.32959 0.81299,-0.32959 0.70312,0 0.96679,0.549316 0.15381,0.285645 0.15381,1.296387 l 0,8.371582 q 0,1.032716 -0.2417,1.428226 -0.21972,0.3955 -0.83496,0.3955 -0.50537,0 -0.79101,-0.30761 -0.28565,-0.30762 -0.46143,-1.032717 -0.37353,-1.516114 -1.07666,-2.329102 -0.68115,-0.812988 -1.77978,-1.07666 z m 0.13183,13.996579 0,-2.37304 q 1.42822,-0.21973 2.35108,-0.61524 0.94482,-0.39551 1.88964,-1.20849 0.94483,-0.81299 1.49414,-1.66993 0.57129,-0.8789 1.07666,-2.30713 0.2417,-0.70312 0.50538,-0.94482 0.26367,-0.26367 0.72509,-0.26367 0.61524,0 0.85694,0.37353 0.2417,0.35157 0.2417,1.25245 l 0,7.75634 -9.14063,0 z"
       style="font-size:45px"
       id="path4856"
       inkscape:connector-curvature="0" />
    <path
       d="m 606.43164,80.050537 0,25.817873 q 0,0.85693 0.32959,1.23047 0.17578,0.21972 0.32959,0.28564 0.15381,0.044 1.01074,0.26367 1.05469,0.2417 1.05469,1.2085 0,0.57129 -0.57129,0.92285 -0.41748,0.26367 -1.38428,0.26367 l -0.74707,0 -9.7998,0 -0.57129,0 q -0.79102,0 -1.23047,-0.28564 -0.41748,-0.30762 -0.41748,-0.85694 0,-0.90087 0.87891,-1.18652 0.72509,-0.2417 0.83496,-0.28564 0.13183,-0.0659 0.26367,-0.26368 0.26367,-0.35156 0.26367,-1.1206 l 0,-21.994629 q 0,-0.769043 -0.26367,-1.120606 -0.13184,-0.197754 -0.26367,-0.241699 -0.10987,-0.06592 -0.83496,-0.307617 -0.87891,-0.285645 -0.87891,-1.186524 0,-0.549316 0.41748,-0.834961 0.43945,-0.307617 1.23047,-0.307617 l 0.57129,0 9.77783,0 z m 6.74561,15.292969 q 2.02148,0.307617 3.09814,0.681152 1.09863,0.373535 1.97754,1.010742 0.92285,0.681153 1.40625,1.625977 0.50537,0.944824 0.50537,1.999513 l 0,4.54834 q 0,0.70312 0.46143,0.70312 0.17578,0 0.28564,-0.0879 0.13184,-0.10986 0.35156,-0.3955 0.54932,-0.74708 1.12061,-0.74708 0.37353,0 0.74707,0.39551 0.37353,0.39551 0.37353,0.79102 0,0.68115 -0.65918,1.66992 -0.6372,0.9668 -1.604,1.73584 -0.90088,0.7251 -1.95557,1.03271 -1.05468,0.32959 -2.48291,0.32959 -2.90039,0 -4.52636,-1.64794 -1.62598,-1.66993 -1.62598,-4.63624 l 0,-3.6914 q 0,-1.23047 -0.022,-1.428224 -0.10987,-0.878906 -0.61524,-1.516113 -0.6372,-0.769043 -1.82373,-0.900879 l 0,-2.351074 q 1.18653,-0.175782 1.6919,-0.615235 0.43945,-0.395508 0.59326,-0.900879 0.17578,-0.505371 0.17578,-1.49414 l 0,-5.822754 q 0,-1.384278 -0.54932,-2.06543 -0.52734,-0.681152 -1.93359,-1.07666 l 0,-2.438965 0.57129,0 q 2.43896,0 4.15283,0.175781 2.54883,0.2417 4.54834,1.669922 2.87842,2.043457 2.87842,5.822754 0,3.098145 -1.93359,5.075684 -0.81299,0.834961 -1.91163,1.362304 -1.07666,0.527344 -3.29589,1.186524 z"
       style="font-size:45px"
       id="path4858"
       inkscape:connector-curvature="0" />
  </g>
</svg>
