<?xml version="1.0" encoding="UTF-8" standalone="no"?>
<!-- Created with Inkscape (http://www.inkscape.org/) -->

<svg
   xmlns:dc="http://purl.org/dc/elements/1.1/"
   xmlns:cc="http://creativecommons.org/ns#"
   xmlns:rdf="http://www.w3.org/1999/02/22-rdf-syntax-ns#"
   xmlns:svg="http://www.w3.org/2000/svg"
   xmlns="http://www.w3.org/2000/svg"
   xmlns:sodipodi="http://sodipodi.sourceforge.net/DTD/sodipodi-0.dtd"
   xmlns:inkscape="http://www.inkscape.org/namespaces/inkscape"
   id="svg7702"
   version="1.1"
   inkscape:version="0.91 r13725"
   width="200"
   height="200"
   viewBox="0 0 200 200"
   sodipodi:docname="LSDLM.svg">
  <metadata
     id="metadata7708">
    <rdf:RDF>
      <cc:Work
         rdf:about="">
        <dc:format>image/svg+xml</dc:format>
        <dc:type
           rdf:resource="http://purl.org/dc/dcmitype/StillImage" />
        <dc:title></dc:title>
      </cc:Work>
    </rdf:RDF>
  </metadata>
  <defs
     id="defs7706" />
  <sodipodi:namedview
     pagecolor="#ffffff"
     bordercolor="#666666"
     borderopacity="1"
     objecttolerance="10"
     gridtolerance="10"
     guidetolerance="10"
     inkscape:pageopacity="0"
     inkscape:pageshadow="2"
     inkscape:window-width="1600"
     inkscape:window-height="837"
     id="namedview7704"
     showgrid="false"
     inkscape:zoom="1.3350176"
     inkscape:cx="143.21916"
     inkscape:cy="182.58455"
     inkscape:window-x="-8"
     inkscape:window-y="-8"
     inkscape:window-maximized="1"
     inkscape:current-layer="flowRoot10488" />
  <g
     transform="matrix(0.93234193,0,0,1.1023561,-13.922978,-225.79717)"
     style="font-style:normal;font-weight:normal;font-size:40px;line-height:125%;font-family:sans-serif;letter-spacing:0px;word-spacing:0px;fill:#d7e3f4;fill-opacity:1;stroke:none;stroke-width:1px;stroke-linecap:butt;stroke-linejoin:miter;stroke-opacity:1"
     id="flowRoot10488">
    <g
       id="g4733"
       transform="matrix(0.53129566,0,0,0.49748065,7.22129,193.02132)">
      <path
         transform="matrix(1.0725679,0,0,0.90714788,14.933339,-67.312938)"
         inkscape:connector-curvature="0"
         id="path11073"
         d="m 116.48623,501.28091 c -25.734335,-2.077 -49.022765,-8.93772 -67.898175,-20.00266 -11.51492,-6.75015 -26.53803,-22.53301 -31.9237,-33.53815 -23.7157897,-48.4611 6.17464,-110.67559 74.82187,-155.73566 45.981995,-30.18259 101.766315,-47.23072 154.375005,-47.17818 45.17901,0.0451 78.25132,11.20099 101.28085,34.16384 16.199,16.15209 22.46915,31.06859 22.46915,53.45336 0,26.30304 -10.57031,51.66333 -32.67021,78.38235 -35.75027,43.22248 -100.9483,78.46173 -162.95479,88.07634 -7.87633,1.22129 -41.5876,4.08251 -43.125,3.6602 -0.34375,-0.0944 -6.8125,-0.67107 -14.375,-1.28144 z M 8.4477753,249.6151 c -0.0772,-122.58421 0.0616,-131.53299 2.1028997,-135.53614 1.20205,-2.35738 3.77368,-5.45113 5.71472,-6.875 3.5284,-2.58831 3.56534,-2.58886 172.499995,-2.58886 165.49465,0 169.054,0.0503 173.01314,2.44508 8.1422,4.92499 7.83614,0.89317 7.79939,102.74383 l -0.0333,92.31109 -3.92403,-7.23301 c -14.76953,-27.22398 -49.61147,-47.23823 -92.88434,-53.35552 -13.49225,-1.90735 -46.67434,-1.54533 -61.71458,0.67329 -65.33181,9.63727 -124.996235,39.1484 -165.702605,81.9596 -15.64984,16.45904 -25.65218,31.59725 -35.4025897,53.58064 -1.02641,2.31416 -1.40749,-30.9301 -1.4687,-128.125 z"
         style="fill:#2c5aa0;fill-opacity:1" />
      <g
         id="g4710">
        <path
           style="fill:#d7e3f4"
           d="m 111.61771,470.23143 -19.46926,3.55771 11.52132,-3.57078 c 6.33671,-1.96392 15.76567,-4.50888 20.95326,-5.65546 7.2929,-1.61191 9.33634,-2.51725 9.01038,-3.99204 -0.53993,-2.44285 3.58568,-5.62059 8.79072,-6.77103 6.00553,-1.32736 23.47907,-2.31667 23.697,-1.34168 0.10344,0.46339 -3.65794,1.47552 -8.35898,2.24925 -9.73217,1.60179 -18.73753,5.72834 -19.3586,8.87074 -0.23147,1.17102 -1.97236,2.34657 -3.8687,2.61235 -1.89634,0.26579 -12.20904,2.0842 -22.91714,4.04094 z m -44.26866,7.67325 c -0.26861,-1.2153 0.97132,-2.26327 3.28218,-2.77402 2.04263,-0.45147 3.60111,-1.33111 3.46327,-1.95473 -0.13783,-0.62361 4.50552,-2.6144 10.31859,-4.42397 17.98722,-5.59929 59.55398,-21.84347 76.68792,-29.96941 8.97783,-4.25784 16.63185,-7.80972 17.00892,-7.89306 0.37707,-0.0833 0.62583,1.55176 0.5528,3.63356 -0.12074,3.44182 -0.0197,3.51237 1.11467,0.77792 0.68608,-1.65394 2.07743,-7.79991 3.09189,-13.65773 1.41469,-8.16912 2.2116,-10.09533 3.42031,-8.26744 0.86674,1.31073 2.51693,3.62856 3.66712,5.15073 2.75109,3.64086 2.21436,8.58207 -0.78983,7.27143 -3.11477,-1.3589 -4.03832,0.69216 -1.50041,3.33214 1.76727,1.83833 1.54453,3.49197 -1.2233,9.08201 -2.85187,5.75976 -2.92755,6.3935 -0.48125,4.03027 1.5965,-1.54229 4.60257,-3.13136 6.68018,-3.53125 3.64328,-0.70135 3.62997,-0.64332 -0.37551,1.63208 -2.2841,1.29756 -4.83601,3.09513 -5.67087,3.9946 -0.83486,0.89948 -2.27812,1.4177 -3.20723,1.1516 -0.92913,-0.26611 -3.14042,0.83811 -4.91401,2.45381 -3.02301,2.75388 -3.80236,2.87773 -12.46086,1.98013 -6.38446,-0.66188 -12.68126,-0.22003 -20.39417,1.43106 -13.2163,2.82925 -17.60674,4.93494 -16.90536,8.10829 0.46428,2.10057 -1.71851,2.9271 -21.7809,8.24747 -12.26328,3.25212 -23.79317,6.80824 -25.62195,7.90249 -5.38632,3.22289 -13.4634,4.5488 -13.9622,2.29202 z m 1.38177,-8.37629 c -1.62104,-1.09754 -1.71122,-1.66299 -0.38154,-2.39247 0.95764,-0.5254 1.80187,-3.99828 1.87607,-7.71752 0.13918,-6.97832 3.443,-10.07984 5.65371,-5.30751 2.31892,5.00592 6.74756,7.44335 11.55751,6.36098 8.95179,-2.0145 10.8,-3.62838 10.64628,-9.29684 -0.0877,-3.23462 0.67318,-5.47787 1.9541,-5.76099 1.15375,-0.25501 2.26256,0.28203 2.464,1.19342 0.20144,0.91137 2.89295,2.23136 5.98112,2.9333 5.54475,1.2603 5.81992,1.18499 22.03891,-6.03076 13.71466,-6.10165 16.33551,-7.70751 15.88743,-9.73478 -0.29512,-1.33525 0.0675,-2.95116 0.80578,-3.59088 0.7383,-0.63973 0.94533,-2.08227 0.46006,-3.20565 -0.48808,-1.12994 0.233,-2.50842 1.61394,-3.08531 1.37292,-0.57355 2.68861,-0.27205 2.92375,0.66999 0.23515,0.94202 2.12991,2.33149 4.21057,3.08765 3.54815,1.2895 4.40079,1.00265 13.73215,-4.61967 10.39116,-6.26087 12.16784,-6.13981 9.83052,0.6699 -2.25776,6.57784 -41.14872,23.58828 -103.87519,45.43375 -3.46768,1.20767 -5.97879,1.34152 -7.37917,0.39339 z m 14.00149,-32.20541 c 7.88397,-15.5816 13.70995,-35.50712 14.63206,-50.04342 0.84315,-13.29142 -3.19683,-30.45971 -8.86786,-37.68489 -3.08901,-3.93554 -3.10694,-4.55502 -0.43204,-14.92744 2.36826,-9.18344 2.45984,-12.35054 0.60496,-20.92274 -1.75115,-8.09251 -1.74262,-10.19918 0.0426,-10.59375 1.51687,-0.33526 2.53752,0.85631 3.19671,3.73204 l 0.96825,4.22459 2.0264,-3.68617 2.02638,-3.68615 4.18352,3.32138 c 6.50389,5.16362 17.86982,19.18875 25.09273,30.9635 5.69462,9.28334 7.09133,13.03533 10.5226,28.26691 4.1496,18.4209 4.28096,31.29421 0.47918,47.01242 -2.36852,9.79253 -1.577,10.43446 3.90685,3.16843 7.37127,-9.76684 14.18278,-25.17758 16.03167,-36.27095 1.77521,-10.65127 -1.01932,-28.46756 -5.97035,-38.06331 -2.1224,-4.11352 -2.0616,-5.66251 0.47565,-12.11528 2.3361,-5.94114 2.57155,-8.92662 1.19513,-15.15411 -1.70694,-7.72285 -0.42987,-10.74592 2.3941,-5.66721 1.44753,2.6033 1.5443,2.59365 3.97565,-0.39664 2.45584,-3.02041 2.55214,-2.99102 6.63474,2.02457 21.51611,26.43303 27.74193,63.52984 15.67332,93.39035 -2.76152,6.83264 -3.95291,8.28544 -7.07405,8.62612 -12.93666,1.41218 -22.10889,4.43691 -33.12545,10.92382 -7.08401,4.17128 -10.98529,5.91212 -10.15713,4.53236 1.09369,-1.82216 0.56043,-2.23942 -2.85777,-2.23604 -10.20817,0.01 -34.25024,10.15726 -47.38326,19.99865 -4.05932,3.04189 -3.99362,2.72388 1.80536,-8.73702 z"
           id="path8804"
           inkscape:connector-curvature="0"
           inkscape:transform-center-x="36.016949"
           inkscape:transform-center-y="16.949153"
           transform="matrix(1.0725679,0,0,0.90714788,14.933339,-67.312938)" />
        <path
           style="fill:#d7e3f4;fill-opacity:1"
           d="m 273.48718,446.72193 c 0.14587,-0.38744 0.70876,-1.84804 1.25088,-3.24578 1.552,-4.00143 2.96783,-8.86702 3.48001,-11.95922 0.25875,-1.56216 0.58931,-3.25348 0.73459,-3.75847 0.35629,-1.23845 0.33952,-7.21966 -0.0209,-7.45329 -0.15677,-0.10163 -0.28504,-0.70383 -0.28504,-1.33822 0,-1.36261 -1.59393,-4.73472 -2.94839,-6.23767 -1.10452,-1.22557 -3.6469,-3.03792 -4.26166,-3.03792 -0.24888,0 -0.53177,-0.13454 -0.62866,-0.29899 -0.0969,-0.16443 -0.48171,-0.29898 -0.85514,-0.29898 -0.37343,0 -0.75824,-0.13454 -0.85513,-0.29897 -0.0969,-0.16444 -0.60998,-0.29898 -1.14018,-0.29898 -0.53021,0 -1.04328,-0.13455 -1.14017,-0.29898 -0.10739,-0.18224 -2.27771,-0.29898 -5.55836,-0.29898 -3.28066,0 -5.45098,0.11674 -5.55837,0.29898 -0.0969,0.16443 -0.4817,0.29898 -0.85513,0.29898 -0.37344,0 -0.75825,0.13454 -0.85514,0.29898 -0.0969,0.16443 -0.48169,0.29897 -0.85513,0.29897 -0.37342,0 -0.75823,0.13455 -0.85513,0.29898 -0.0969,0.16445 -0.43547,0.29899 -0.75239,0.29899 -0.91902,0 -3.62419,2.00113 -6.01741,4.45134 -1.39024,1.42333 -2.20909,2.07688 -2.20909,1.76315 0,-0.27423 0.12827,-0.58173 0.28504,-0.68336 0.15677,-0.10163 0.28504,-0.50525 0.28504,-0.89693 0,-0.39169 0.12828,-0.79532 0.28505,-0.89695 0.15678,-0.10163 0.28504,-0.44775 0.28504,-0.76914 0,-0.68244 0.46504,-1.61938 1.32477,-2.66913 0.3367,-0.41109 0.87741,-1.27495 1.2016,-1.91967 1.36118,-2.70704 7.80815,-6.98999 14.42427,-9.58257 2.99503,-1.17362 10.23007,-3.14019 13.83414,-3.76028 2.56377,-0.4411 3.24137,-0.83629 3.95551,-2.30695 1.54523,-3.18216 2.31546,-8.36354 2.31546,-15.57623 0,-10.07592 -1.66414,-15.81952 -4.87598,-16.82885 -1.10245,-0.34645 -1.22013,-0.32617 -1.69775,0.2925 -0.64917,0.84089 -0.92423,3.12282 -0.79555,6.60005 0.0554,1.49597 0.01,2.71988 -0.10159,2.7198 -0.50254,-2.4e-4 -1.77782,-1.84722 -2.78722,-4.03639 -1.42379,-3.08788 -2.58253,-6.77511 -3.71132,-11.80972 -1.6742,-7.46732 -2.69287,-10.16084 -5.53824,-14.64388 -5.85627,-9.22689 -16.47051,-17.90435 -35.36983,-28.91588 -9.40146,-5.47767 -23.57454,-12.99853 -42.75017,-22.68511 -12.20328,-6.16448 -15.60752,-7.96479 -14.67978,-7.76328 0.39194,0.0851 2.12358,0.55838 3.84809,1.05167 9.40343,2.68977 22.21591,5.86881 28.932,7.17862 1.8029,0.35161 4.22168,0.83229 5.37506,1.06818 3.95771,0.80941 6.39873,0.54025 10.69261,-1.179 1.0769,-0.43118 1.99465,-0.78397 2.03945,-0.78397 0.0448,0 0.012,0.54281 -0.0728,1.20625 -0.60909,4.76319 5.86779,6.69367 7.49192,2.23301 0.55834,-1.53347 0.39888,-2.99707 -0.44984,-4.12879 -0.30944,-0.41261 -0.56261,-0.82988 -0.56261,-0.92727 0,-0.0974 1.40441,-0.17708 3.12089,-0.17708 3.5236,0 8.55988,0.62201 12.15455,1.50115 1.33066,0.32544 2.52347,0.59171 2.65069,0.59171 0.12721,0 0.30882,-1.44632 0.40356,-3.21404 0.34185,-6.37873 2.61991,-11.87285 6.44905,-15.55362 1.62138,-1.55855 4.30334,-3.35689 5.00629,-3.35689 0.7334,0 0.8321,0.22353 1.98018,4.48471 0.90498,3.35887 2.18636,5.56206 3.99334,6.86608 3.12197,2.25299 6.23534,2.69647 18.96995,2.70215 10.25475,0.005 15.94529,0.29701 20.52318,1.05467 6.92207,1.14563 15.76633,4.11604 17.62857,5.92071 2.96634,2.87462 1.70896,6.81232 -6.17369,19.33404 -2.12212,3.37101 -4.20574,6.93635 -4.6303,7.92298 -1.72702,4.0135 -2.73625,9.80881 -2.90517,16.68228 -0.0625,2.54287 -0.0778,2.59746 -0.45955,1.6444 -3.30482,-8.24957 -8.23972,-15.55271 -14.21733,-21.0402 -2.6941,-2.4732 -6.20129,-5.17059 -8.48301,-6.52429 l -1.42522,-0.84557 1.14017,0.97523 c 2.43147,2.07969 7.51951,7.7389 9.26409,10.30408 2.24102,3.29511 4.75386,8.45377 5.92974,12.17329 2.09769,6.63538 2.76301,12.12301 2.54032,20.95271 -0.2294,9.09592 -1.21877,14.57139 -4.22454,23.37991 -1.35167,3.96114 -1.93903,5.5007 -5.53264,14.50194 -2.11725,5.30323 -2.87769,7.38931 -3.37863,9.26839 -0.54489,2.04389 -0.61256,6.73607 -0.18327,12.70667 0.17735,2.46658 0.32682,5.35923 0.33217,6.42808 0.015,2.99253 -0.49494,8.03092 -1.00752,9.95569 -0.25394,0.95355 -0.46171,2.05741 -0.46171,2.45305 0,0.96752 -1.97132,6.70431 -3.13314,9.11785 -1.80493,3.74949 -4.99947,8.09404 -7.68688,10.45408 -1.20094,1.05463 -1.40088,1.15035 -1.18059,0.56521 z"
           id="path10471"
           inkscape:connector-curvature="0"
           transform="matrix(1.0725679,0,0,0.90714788,14.933339,-67.312938)" />
        <path
           d="m 52.820312,73.619873 -11.950683,0 -0.698242,0 q -0.966797,0 -1.503907,-0.349121 -0.510253,-0.375977 -0.510253,-1.047363 0,-1.101075 1.074218,-1.450196 0.886231,-0.29541 1.020508,-0.349121 0.161133,-0.08057 0.322266,-0.322265 0.322265,-0.429688 0.322265,-1.369629 l 0,-26.882324 q 0,-0.939942 -0.322265,-1.369629 -0.161133,-0.2417 -0.322266,-0.295411 -0.134277,-0.08057 -1.020508,-0.375976 -1.074218,-0.349121 -1.074218,-1.450195 0,-0.671387 0.510253,-1.020508 0.53711,-0.375977 1.503907,-0.375977 l 0.698242,0 11.977539,0 0.913086,0 q 1.181641,0 1.691894,0.322266 0.698243,0.429687 0.698243,1.12793 0,1.18164 -1.289063,1.47705 -1.047363,0.2417 -1.235351,0.322266 -0.187989,0.08057 -0.402832,0.322266 -0.402833,0.483398 -0.402833,1.503906 l 0,31.582031 z m 2.175293,0 0,-3.007812 q 1.315918,-0.2417 2.067872,-0.53711 0.778808,-0.29541 1.47705,-0.859375 1.12793,-0.88623 2.067871,-2.443847 0.939942,-1.557618 1.530762,-3.464356 0.429688,-1.477051 0.778809,-1.933594 0.375976,-0.483398 1.074218,-0.483398 0.751954,0 1.101075,0.617676 0.161133,0.29541 0.161133,1.18164 l 0,10.930176 -10.25879,0 z"
           style="font-style:normal;font-variant:normal;font-weight:normal;font-stretch:normal;font-size:55px;font-family:Stencil;-inkscape-font-specification:Stencil;fill:#d7e3f4;fill-opacity:1"
           id="path11091"
           inkscape:connector-curvature="0" />
        <path
           d="m 82.146484,36.962158 0,36.657715 -11.950683,0 -0.698242,0 q -0.966797,0 -1.503907,-0.349121 -0.510254,-0.375977 -0.510254,-1.047363 0,-1.101075 1.074219,-1.450196 0.886231,-0.29541 1.020508,-0.349121 0.161133,-0.08057 0.322266,-0.322265 0.322265,-0.429688 0.322265,-1.369629 l 0,-26.882324 q 0,-0.939942 -0.322265,-1.369629 -0.161133,-0.2417 -0.322266,-0.295411 -0.134277,-0.08057 -1.020508,-0.375976 -1.074219,-0.349121 -1.074219,-1.450195 0,-0.671387 0.510254,-1.020508 0.53711,-0.375977 1.503907,-0.375977 l 0.698242,0 11.950683,0 z m 2.390137,0 10.822754,0 0,9.506836 q 0,0.83252 -0.322266,1.208496 -0.322265,0.375977 -1.020507,0.375977 -0.590821,0 -0.859375,-0.241699 -0.268555,-0.2417 -0.510254,-0.993653 -1.020508,-3.115234 -3.007813,-4.753418 -1.960449,-1.638183 -5.102539,-1.960449 l 0,-3.14209 z m -0.134277,19.550781 0,-3.115234 q 1.557617,-0.751953 2.30957,-1.638184 0.751953,-0.88623 1.101074,-2.363281 0.214844,-1.020508 0.563965,-1.396484 0.349121,-0.402832 0.993652,-0.402832 0.859375,0 1.181641,0.671387 0.187988,0.349121 0.187988,1.584472 l 0,10.231934 q 0,1.262207 -0.29541,1.745605 -0.268554,0.483399 -1.020508,0.483399 -0.617675,0 -0.966796,-0.375977 -0.349122,-0.375976 -0.563965,-1.262207 -0.456543,-1.853027 -1.315918,-2.84668 -0.83252,-0.993652 -2.175293,-1.315918 z m 0.161133,17.106934 0,-2.900391 q 1.745605,-0.268554 2.873535,-0.751953 1.154785,-0.483398 2.30957,-1.47705 1.154785,-0.993653 1.826172,-2.041016 0.698242,-1.074219 1.315918,-2.819824 0.29541,-0.859375 0.617676,-1.154785 0.322265,-0.322266 0.88623,-0.322266 0.751953,0 1.047363,0.456543 0.295411,0.429687 0.295411,1.530762 l 0,9.47998 -11.171875,0 z"
           style="font-style:normal;font-variant:normal;font-weight:normal;font-stretch:normal;font-size:55px;font-family:Stencil;-inkscape-font-specification:Stencil;fill:#d7e3f4;fill-opacity:1"
           id="path11093"
           inkscape:connector-curvature="0" />
        <path
           d="m 112.19775,36.237061 0,3.088378 q -1.66504,0.456543 -2.55127,1.42334 -0.85937,0.939942 -0.85937,2.336426 0,1.342774 0.7251,2.363281 0.72509,0.993653 2.36328,1.906739 1.12793,0.617675 5.10254,2.363281 2.41699,1.047363 3.73291,1.906738 1.34277,0.83252 2.52441,2.094727 3.16895,3.330078 3.16895,7.922363 0,3.464355 -1.71875,6.337891 -1.71875,2.873535 -4.72657,4.511718 -1.61132,0.859375 -3.54492,1.342774 -1.90674,0.510254 -3.57177,0.510254 l 0,-3.061524 q 2.33642,-0.563965 3.35693,-1.557617 1.04736,-1.020508 1.04736,-2.739258 0,-1.799316 -1.61133,-3.168945 -1.07421,-0.886231 -4.08203,-2.202148 -3.30322,-1.450196 -4.53857,-2.067872 -1.2085,-0.617675 -2.33643,-1.450195 -5.048825,-3.598633 -5.048825,-9.587402 0,-3.061524 1.262205,-5.639649 1.26221,-2.60498 3.51807,-4.189453 3.14209,-2.202148 7.78808,-2.443847 z m 2.12159,3.088378 0,-2.954101 q 1.61132,0.107422 2.79296,0.429687 1.18165,0.295411 3.35694,1.208496 0.53711,0.214844 0.88623,0.214844 0.51025,0 0.75195,-0.349121 l 0.59082,-0.778808 q 0.42969,-0.590821 1.04737,-0.590821 0.72509,0 1.04736,0.53711 0.34912,0.510254 0.34912,1.638183 l 0,8.862305 q 0,0.778808 -0.45654,1.289062 -0.42969,0.483399 -1.12793,0.483399 -0.53711,0 -0.99366,-0.349121 -0.24169,-0.214844 -0.40283,-0.510254 -0.13427,-0.322266 -0.26855,-1.047363 -0.29541,-1.315918 -1.02051,-2.712403 -0.7251,-1.396484 -1.69189,-2.497558 -1.9336,-2.175293 -4.86084,-2.873536 z m -3.51807,31.958008 0,3.061524 q -2.20215,0 -4.86084,-1.262207 -0.99365,-0.456543 -1.36963,-0.590821 -0.37598,-0.134277 -0.7251,-0.134277 -0.53711,0 -0.80566,0.187988 -0.26856,0.161133 -0.85938,0.859375 -0.48339,0.590821 -1.04736,0.590821 -1.503905,0 -1.503905,-2.309571 l 0,-9.77539 q 0,-0.751953 0.429685,-1.262207 0.42969,-0.53711 1.07422,-0.563965 0.59082,-0.02686 0.91309,0.349121 0.34912,0.349121 0.59082,1.262207 0.61767,2.30957 1.77246,4.32373 1.18164,2.014161 2.73926,3.410645 1.58447,1.450195 3.65234,1.853027 z"
           style="font-style:normal;font-variant:normal;font-weight:normal;font-stretch:normal;font-size:55px;font-family:Stencil;-inkscape-font-specification:Stencil;fill:#d7e3f4;fill-opacity:1"
           id="path11095"
           inkscape:connector-curvature="0" />
        <path
           d="m 156.77783,36.237061 0,3.088378 q -1.66504,0.456543 -2.55127,1.42334 -0.85937,0.939942 -0.85937,2.336426 0,1.342774 0.7251,2.363281 0.72509,0.993653 2.36328,1.906739 1.12793,0.617675 5.10254,2.363281 2.41699,1.047363 3.73291,1.906738 1.34277,0.83252 2.52441,2.094727 3.16894,3.330078 3.16894,7.922363 0,3.464355 -1.71875,6.337891 -1.71875,2.873535 -4.72656,4.511718 -1.61133,0.859375 -3.54492,1.342774 -1.90674,0.510254 -3.57178,0.510254 l 0,-3.061524 q 2.33643,-0.563965 3.35694,-1.557617 1.04736,-1.020508 1.04736,-2.739258 0,-1.799316 -1.61133,-3.168945 -1.07422,-0.886231 -4.08203,-2.202148 -3.30322,-1.450196 -4.53857,-2.067872 -1.2085,-0.617675 -2.33643,-1.450195 -5.04883,-3.598633 -5.04883,-9.587402 0,-3.061524 1.26221,-5.639649 1.26221,-2.60498 3.51807,-4.189453 3.14209,-2.202148 7.78808,-2.443847 z m 2.12158,3.088378 0,-2.954101 q 1.61133,0.107422 2.79297,0.429687 1.18164,0.295411 3.35694,1.208496 0.53711,0.214844 0.88623,0.214844 0.51025,0 0.75195,-0.349121 l 0.59082,-0.778808 q 0.42969,-0.590821 1.04736,-0.590821 0.7251,0 1.04737,0.53711 0.34912,0.510254 0.34912,1.638183 l 0,8.862305 q 0,0.778808 -0.45655,1.289062 -0.42968,0.483399 -1.12792,0.483399 -0.53711,0 -0.99366,-0.349121 -0.2417,-0.214844 -0.40283,-0.510254 -0.13428,-0.322266 -0.26855,-1.047363 -0.29541,-1.315918 -1.02051,-2.712403 -0.7251,-1.396484 -1.6919,-2.497558 -1.93359,-2.175293 -4.86084,-2.873536 z m -3.51806,31.958008 0,3.061524 q -2.20215,0 -4.86084,-1.262207 -0.99365,-0.456543 -1.36963,-0.590821 -0.37598,-0.134277 -0.7251,-0.134277 -0.53711,0 -0.80566,0.187988 -0.26856,0.161133 -0.85938,0.859375 -0.4834,0.590821 -1.04736,0.590821 -1.50391,0 -1.50391,-2.309571 l 0,-9.77539 q 0,-0.751953 0.42969,-1.262207 0.42969,-0.53711 1.07422,-0.563965 0.59082,-0.02686 0.91308,0.349121 0.34913,0.349121 0.59083,1.262207 0.61767,2.30957 1.77246,4.32373 1.18164,2.014161 2.73925,3.410645 1.58448,1.450195 3.65235,1.853027 z"
           style="font-style:normal;font-variant:normal;font-weight:normal;font-stretch:normal;font-size:55px;font-family:Stencil;-inkscape-font-specification:Stencil;fill:#d7e3f4;fill-opacity:1"
           id="path11097"
           inkscape:connector-curvature="0" />
        <path
           d="m 189.89062,36.962158 0,36.657715 -11.95068,0 -0.69824,0 q -0.9668,0 -1.50391,-0.349121 -0.51025,-0.375977 -0.51025,-1.047363 0,-1.101075 1.07422,-1.450196 0.88623,-0.29541 1.02051,-0.349121 0.16113,-0.08057 0.32226,-0.322265 0.32227,-0.429688 0.32227,-1.369629 l 0,-26.882324 q 0,-0.939942 -0.32227,-1.369629 -0.16113,-0.2417 -0.32226,-0.295411 -0.13428,-0.08057 -1.02051,-0.375976 -1.07422,-0.349121 -1.07422,-1.450195 0,-0.671387 0.51025,-1.020508 0.53711,-0.375977 1.50391,-0.375977 l 0.69824,0 11.95068,0 z m 2.39014,0 10.82276,0 0,9.506836 q 0,0.83252 -0.32227,1.208496 -0.32227,0.375977 -1.02051,0.375977 -0.59082,0 -0.85937,-0.241699 -0.26856,-0.2417 -0.51026,-0.993653 -1.0205,-3.115234 -3.00781,-4.753418 -1.96045,-1.638183 -5.10254,-1.960449 l 0,-3.14209 z m -0.13428,19.550781 0,-3.115234 q 1.55762,-0.751953 2.30957,-1.638184 0.75196,-0.88623 1.10108,-2.363281 0.21484,-1.020508 0.56396,-1.396484 0.34912,-0.402832 0.99366,-0.402832 0.85937,0 1.18164,0.671387 0.18798,0.349121 0.18798,1.584472 l 0,10.231934 q 0,1.262207 -0.29541,1.745605 -0.26855,0.483399 -1.0205,0.483399 -0.61768,0 -0.9668,-0.375977 -0.34912,-0.375976 -0.56396,-1.262207 -0.45655,-1.853027 -1.31592,-2.84668 -0.83252,-0.993652 -2.1753,-1.315918 z m 0.16114,17.106934 0,-2.900391 q 1.7456,-0.268554 2.87353,-0.751953 1.15479,-0.483398 2.30957,-1.47705 1.15479,-0.993653 1.82617,-2.041016 0.69825,-1.074219 1.31592,-2.819824 0.29541,-0.859375 0.61768,-1.154785 0.32226,-0.322266 0.88623,-0.322266 0.75195,0 1.04736,0.456543 0.29541,0.429687 0.29541,1.530762 l 0,9.47998 -11.17187,0 z"
           style="font-style:normal;font-variant:normal;font-weight:normal;font-stretch:normal;font-size:55px;font-family:Stencil;-inkscape-font-specification:Stencil;fill:#d7e3f4;fill-opacity:1"
           id="path11099"
           inkscape:connector-curvature="0" />
        <path
           d="m 222.22461,36.962158 0,31.555176 q 0,1.047363 0.40283,1.503906 0.21485,0.268555 0.40283,0.349121 0.18799,0.05371 1.23535,0.322266 1.28907,0.29541 1.28907,1.477051 0,0.698242 -0.69824,1.127929 -0.51026,0.322266 -1.6919,0.322266 l -0.91309,0 -11.97753,0 -0.69825,0 q -0.96679,0 -1.5039,-0.349121 -0.51026,-0.375977 -0.51026,-1.047363 0,-1.101075 1.07422,-1.450196 0.88623,-0.29541 1.02051,-0.349121 0.16113,-0.08057 0.32227,-0.322265 0.32226,-0.429688 0.32226,-1.369629 l 0,-26.882324 q 0,-0.939942 -0.32226,-1.369629 -0.16114,-0.2417 -0.32227,-0.295411 -0.13428,-0.08057 -1.02051,-0.375976 -1.07422,-0.349121 -1.07422,-1.450195 0,-0.671387 0.51026,-1.020508 0.53711,-0.375977 1.5039,-0.375977 l 0.69825,0 11.95068,0 z m 8.24463,18.691406 q 2.4707,0.375977 3.78662,0.83252 1.34277,0.456543 2.41699,1.235352 1.12793,0.832519 1.71875,1.987304 0.61768,1.154785 0.61768,2.443848 l 0,5.559082 q 0,0.859375 0.56396,0.859375 0.21485,0 0.34912,-0.107422 0.16114,-0.134277 0.42969,-0.483398 0.67139,-0.913086 1.36963,-0.913086 0.45654,0 0.91309,0.483398 0.45654,0.483399 0.45654,0.966797 0,0.83252 -0.80567,2.041016 -0.7788,1.18164 -1.96044,2.121582 -1.10108,0.88623 -2.39014,1.262207 -1.28906,0.402832 -3.03467,0.402832 -3.54492,0 -5.53223,-2.01416 -1.9873,-2.041016 -1.9873,-5.666504 l 0,-4.511719 q 0,-1.503906 -0.0269,-1.745606 -0.13427,-1.074218 -0.75195,-1.853027 -0.77881,-0.939941 -2.229,-1.101074 l 0,-2.873535 q 1.45019,-0.214844 2.06787,-0.751953 0.53711,-0.483399 0.7251,-1.101075 0.21484,-0.617675 0.21484,-1.826172 l 0,-7.116699 q 0,-1.691894 -0.67139,-2.524414 -0.64453,-0.832519 -2.36328,-1.315918 l 0,-2.980957 0.69824,0 q 2.98096,0 5.07569,0.214844 3.11523,0.29541 5.55908,2.041016 3.51807,2.497558 3.51807,7.116699 0,3.786621 -2.36329,6.203613 -0.99365,1.020508 -2.33642,1.665039 -1.31592,0.644531 -4.02832,1.450195 z"
           style="font-style:normal;font-variant:normal;font-weight:normal;font-stretch:normal;font-size:55px;font-family:Stencil;-inkscape-font-specification:Stencil;fill:#d7e3f4;fill-opacity:1"
           id="path11101"
           inkscape:connector-curvature="0" />
        <path
           d="m 266.10645,64.220459 -2.55127,9.399414 -7.06299,0 -9.56055,-32.092285 q -0.21484,-0.725098 -0.40283,-0.966797 -0.18799,-0.268555 -0.59082,-0.456543 -0.85938,-0.349121 -1.12793,-0.644531 -0.26856,-0.29541 -0.26856,-0.886231 0,-0.805664 0.7251,-1.262207 0.56397,-0.349121 1.85303,-0.349121 l 11.95068,0 q 1.12793,0 1.53076,0.05371 0.42969,0.05371 0.69825,0.214844 0.26855,0.187988 0.45654,0.537109 0.18799,0.349121 0.18799,0.671387 0,0.993652 -0.93994,1.42334 -0.69825,0.349121 -0.9668,0.725097 -0.2417,0.349122 -0.2417,1.020508 0,0.429688 0.0806,0.751953 l 6.23047,21.860352 z m 1.0205,-3.840332 -1.42334,-5.048828 3.08838,-11.306153 q 0.29541,-1.074218 0.32227,-1.315917 0.0537,-0.590821 -0.26856,-1.315918 -0.42968,-0.939942 -1.34277,-1.235352 l -0.88623,-0.322266 q -1.04736,-0.349121 -1.04736,-1.369629 0,-0.725097 0.59082,-1.101074 0.59082,-0.402832 1.63818,-0.402832 l 6.57959,0 q 1.23535,0 1.61133,0.241699 0.64453,0.402832 0.64453,1.154786 0,0.510253 -0.21484,0.805664 -0.18799,0.29541 -0.7251,0.537109 l -1.36963,0.644531 q -0.85938,0.402832 -1.66504,1.611328 -0.77881,1.181641 -1.2085,2.712403 l -4.32373,15.710449 z"
           style="font-style:normal;font-variant:normal;font-weight:normal;font-stretch:normal;font-size:55px;font-family:Stencil;-inkscape-font-specification:Stencil;fill:#d7e3f4;fill-opacity:1"
           id="path11103"
           inkscape:connector-curvature="0" />
        <path
           d="m 293.90186,73.619873 -11.97754,0 -0.69825,0 q -0.96679,0 -1.5039,-0.349121 -0.51026,-0.375977 -0.51026,-1.047363 0,-1.101075 1.07422,-1.450196 0.88623,-0.29541 1.02051,-0.349121 0.16113,-0.08057 0.32227,-0.322265 0.32226,-0.429688 0.32226,-1.369629 l 0,-26.882324 q 0,-0.939942 -0.32226,-1.369629 -0.16114,-0.2417 -0.32227,-0.295411 -0.13428,-0.08057 -1.02051,-0.375976 -1.07422,-0.349121 -1.07422,-1.450195 0,-0.671387 0.51026,-1.020508 0.53711,-0.375977 1.5039,-0.375977 l 0.69825,0 11.97754,0 0.69824,0 q 0.96679,0 1.47705,0.375977 0.53711,0.349121 0.53711,1.020508 0,1.101074 -1.07422,1.450195 -0.88623,0.29541 -1.04736,0.375976 -0.13428,0.05371 -0.29541,0.295411 -0.32227,0.429687 -0.32227,1.369629 l 0,26.882324 q 0,0.939941 0.32227,1.369629 0.16113,0.241699 0.29541,0.322265 0.16113,0.05371 1.04736,0.349121 1.07422,0.349121 1.07422,1.450196 0,0.671386 -0.53711,1.047363 -0.51026,0.349121 -1.47705,0.349121 l -0.69824,0 z"
           style="font-style:normal;font-variant:normal;font-weight:normal;font-stretch:normal;font-size:55px;font-family:Stencil;-inkscape-font-specification:Stencil;fill:#d7e3f4;fill-opacity:1"
           id="path11105"
           inkscape:connector-curvature="0" />
        <path
           d="m 315.78906,36.237061 0,3.249511 q -1.58447,0.241699 -2.36328,1.396485 -0.77881,1.154785 -0.77881,3.303222 l 0,22.182617 0,1.154786 q 0,0.617675 0.2417,1.315918 0.26856,0.671386 0.67139,1.154785 0.42969,0.537109 0.91308,0.778808 0.4834,0.214844 1.31592,0.295411 l 0,3.276367 q -5.20996,0 -9.05029,-2.712403 -3.38379,-2.390136 -5.10254,-6.418457 -1.71875,-4.055175 -1.71875,-9.587402 0,-4.055176 1.10107,-7.546387 1.12793,-3.518066 3.24952,-6.096191 2.14843,-2.604981 5.12939,-4.189453 3.00781,-1.584473 5.77393,-1.584473 l 0.61767,0.02686 z m 2.12158,3.276367 0,-3.249512 q 1.31592,0.214844 2.12159,0.456543 0.83252,0.241699 2.98095,1.020508 1.36963,0.483398 1.82618,0.483398 0.7788,0 1.18164,-0.698242 l 0.34912,-0.644531 q 0.32226,-0.644531 1.20849,-0.644531 0.7251,0 1.10108,0.429687 0.40283,0.429688 0.40283,1.262207 l 0,11.171875 q 0,1.074219 -0.4834,1.557617 -0.4834,0.483399 -1.10107,0.483399 -0.64453,0 -1.04737,-0.402832 -0.37597,-0.429688 -0.61767,-1.369629 -0.56397,-2.121582 -1.10108,-3.330078 -1.15478,-2.55127 -2.63183,-4.135743 -0.99365,-1.074218 -1.98731,-1.638183 -0.99365,-0.59082 -2.20215,-0.751953 z m 0.0806,34.831543 0,-3.276367 q 2.09473,-0.161133 4.4043,-1.584473 1.23535,-0.778809 2.20215,-2.067871 0.96679,-1.315918 1.45019,-2.873535 0.26856,-0.859375 0.61768,-1.208496 0.37597,-0.375977 0.96679,-0.375977 0.64454,0 1.07422,0.483398 0.42969,0.483399 0.42969,1.208496 0,1.208497 -0.93994,2.927247 -0.91309,1.71875 -2.36328,3.168945 -1.77246,1.772461 -3.65235,2.631836 -1.85302,0.859375 -4.18945,0.966797 z"
           style="font-style:normal;font-variant:normal;font-weight:normal;font-stretch:normal;font-size:55px;font-family:Stencil;-inkscape-font-specification:Stencil;fill:#d7e3f4;fill-opacity:1"
           id="path11107"
           inkscape:connector-curvature="0" />
        <path
           d="m 347.80078,36.962158 0,36.657715 -11.95068,0 -0.69824,0 q -0.9668,0 -1.50391,-0.349121 -0.51025,-0.375977 -0.51025,-1.047363 0,-1.101075 1.07421,-1.450196 0.88623,-0.29541 1.02051,-0.349121 0.16113,-0.08057 0.32227,-0.322265 0.32226,-0.429688 0.32226,-1.369629 l 0,-26.882324 q 0,-0.939942 -0.32226,-1.369629 -0.16114,-0.2417 -0.32227,-0.295411 -0.13428,-0.08057 -1.02051,-0.375976 -1.07421,-0.349121 -1.07421,-1.450195 0,-0.671387 0.51025,-1.020508 0.53711,-0.375977 1.50391,-0.375977 l 0.69824,0 11.95068,0 z m 2.39014,0 10.82275,0 0,9.506836 q 0,0.83252 -0.32226,1.208496 -0.32227,0.375977 -1.02051,0.375977 -0.59082,0 -0.85938,-0.241699 -0.26855,-0.2417 -0.51025,-0.993653 -1.02051,-3.115234 -3.00781,-4.753418 -1.96045,-1.638183 -5.10254,-1.960449 l 0,-3.14209 z m -0.13428,19.550781 0,-3.115234 q 1.55762,-0.751953 2.30957,-1.638184 0.75195,-0.88623 1.10108,-2.363281 0.21484,-1.020508 0.56396,-1.396484 0.34912,-0.402832 0.99365,-0.402832 0.85938,0 1.18164,0.671387 0.18799,0.349121 0.18799,1.584472 l 0,10.231934 q 0,1.262207 -0.29541,1.745605 -0.26855,0.483399 -1.02051,0.483399 -0.61767,0 -0.96679,-0.375977 -0.34912,-0.375976 -0.56397,-1.262207 -0.45654,-1.853027 -1.31592,-2.84668 -0.83252,-0.993652 -2.17529,-1.315918 z m 0.16113,17.106934 0,-2.900391 q 1.74561,-0.268554 2.87354,-0.751953 1.15478,-0.483398 2.30957,-1.47705 1.15478,-0.993653 1.82617,-2.041016 0.69824,-1.074219 1.31592,-2.819824 0.29541,-0.859375 0.61767,-1.154785 0.32227,-0.322266 0.88623,-0.322266 0.75196,0 1.04737,0.456543 0.29541,0.429687 0.29541,1.530762 l 0,9.47998 -11.17188,0 z"
           style="font-style:normal;font-variant:normal;font-weight:normal;font-stretch:normal;font-size:55px;font-family:Stencil;-inkscape-font-specification:Stencil;fill:#d7e3f4;fill-opacity:1"
           id="path11109"
           inkscape:connector-curvature="0" />
        <path
           d="m 377.85205,36.237061 0,3.088378 q -1.66504,0.456543 -2.55127,1.42334 -0.85937,0.939942 -0.85937,2.336426 0,1.342774 0.72509,2.363281 0.7251,0.993653 2.36329,1.906739 1.12792,0.617675 5.10253,2.363281 2.417,1.047363 3.73291,1.906738 1.34278,0.83252 2.52442,2.094727 3.16894,3.330078 3.16894,7.922363 0,3.464355 -1.71875,6.337891 -1.71875,2.873535 -4.72656,4.511718 -1.61133,0.859375 -3.54492,1.342774 -1.90674,0.510254 -3.57178,0.510254 l 0,-3.061524 q 2.33643,-0.563965 3.35694,-1.557617 1.04736,-1.020508 1.04736,-2.739258 0,-1.799316 -1.61133,-3.168945 -1.07422,-0.886231 -4.08203,-2.202148 -3.30322,-1.450196 -4.53857,-2.067872 -1.2085,-0.617675 -2.33643,-1.450195 -5.04883,-3.598633 -5.04883,-9.587402 0,-3.061524 1.26221,-5.639649 1.26221,-2.60498 3.51806,-4.189453 3.14209,-2.202148 7.78809,-2.443847 z m 2.12158,3.088378 0,-2.954101 q 1.61133,0.107422 2.79297,0.429687 1.18164,0.295411 3.35694,1.208496 0.5371,0.214844 0.88623,0.214844 0.51025,0 0.75195,-0.349121 l 0.59082,-0.778808 q 0.42969,-0.590821 1.04736,-0.590821 0.7251,0 1.04737,0.53711 0.34912,0.510254 0.34912,1.638183 l 0,8.862305 q 0,0.778808 -0.45655,1.289062 -0.42968,0.483399 -1.12793,0.483399 -0.53711,0 -0.99365,-0.349121 -0.2417,-0.214844 -0.40283,-0.510254 -0.13428,-0.322266 -0.26856,-1.047363 -0.29541,-1.315918 -1.0205,-2.712403 -0.7251,-1.396484 -1.6919,-2.497558 -1.93359,-2.175293 -4.86084,-2.873536 z m -3.51806,31.958008 0,3.061524 q -2.20215,0 -4.86084,-1.262207 -0.99366,-0.456543 -1.36963,-0.590821 -0.37598,-0.134277 -0.7251,-0.134277 -0.53711,0 -0.80566,0.187988 -0.26856,0.161133 -0.85938,0.859375 -0.4834,0.590821 -1.04736,0.590821 -1.50391,0 -1.50391,-2.309571 l 0,-9.77539 q 0,-0.751953 0.42969,-1.262207 0.42969,-0.53711 1.07422,-0.563965 0.59082,-0.02686 0.91308,0.349121 0.34912,0.349121 0.59082,1.262207 0.61768,2.30957 1.77246,4.32373 1.18165,2.014161 2.73926,3.410645 1.58448,1.450195 3.65235,1.853027 z"
           style="font-style:normal;font-variant:normal;font-weight:normal;font-stretch:normal;font-size:55px;font-family:Stencil;-inkscape-font-specification:Stencil;fill:#d7e3f4;fill-opacity:1"
           id="path11111"
           inkscape:connector-curvature="0" />
        <path
           d="m 52.820312,105.71216 0,36.65771 -11.950683,0 -0.698242,0 q -0.966797,0 -1.503907,-0.34912 -0.510253,-0.37597 -0.510253,-1.04736 0,-1.10108 1.074218,-1.4502 0.886231,-0.29541 1.020508,-0.34912 0.161133,-0.0806 0.322266,-0.32226 0.322265,-0.42969 0.322265,-1.36963 l 0,-26.88233 q 0,-0.93994 -0.322265,-1.36963 -0.161133,-0.24169 -0.322266,-0.29541 -0.134277,-0.0806 -1.020508,-0.37597 -1.074218,-0.34912 -1.074218,-1.4502 0,-0.67138 0.510253,-1.02051 0.53711,-0.37597 1.503907,-0.37597 l 0.698242,0 11.950683,0 z m 5.424805,28.97705 0,-21.18897 q 0,-1.96045 -0.563965,-3.11523 -0.349121,-0.75195 -0.859375,-1.10107 -0.510254,-0.34913 -1.611328,-0.59082 l 0,-2.98096 q 1.42334,0 2.416992,0.10742 3.410645,0.37598 6.606446,2.90039 3.168945,2.44385 4.699707,6.36475 1.584472,3.97461 1.584472,8.80859 0,5.47852 -2.01416,9.74854 -2.01416,4.24316 -5.773926,6.68701 -1.826171,1.18164 -3.410644,1.61133 -1.557617,0.42968 -4.108887,0.42968 l 0,-2.90039 q 1.12793,-0.29541 1.557617,-0.53711 0.456543,-0.2417 0.778809,-0.75195 0.402832,-0.59082 0.537109,-1.31592 0.161133,-0.75195 0.161133,-2.17529 z"
           style="font-style:normal;font-variant:normal;font-weight:normal;font-stretch:normal;font-size:55px;font-family:Stencil;-inkscape-font-specification:Stencil;fill:#d7e3f4;fill-opacity:1"
           id="path11113"
           inkscape:connector-curvature="0" />
        <path
           d="m 88.484375,105.71216 0,36.65771 -11.950684,0 -0.698242,0 q -0.966797,0 -1.503906,-0.34912 -0.510254,-0.37597 -0.510254,-1.04736 0,-1.10108 1.074219,-1.4502 0.88623,-0.29541 1.020508,-0.34912 0.161132,-0.0806 0.322265,-0.32226 0.322266,-0.42969 0.322266,-1.36963 l 0,-26.88233 q 0,-0.93994 -0.322266,-1.36963 -0.161133,-0.24169 -0.322265,-0.29541 -0.134278,-0.0806 -1.020508,-0.37597 -1.074219,-0.34912 -1.074219,-1.4502 0,-0.67138 0.510254,-1.02051 0.537109,-0.37597 1.503906,-0.37597 l 0.698242,0 11.950684,0 z m 2.390137,0 10.822758,0 0,9.50683 q 0,0.83252 -0.32227,1.2085 -0.32227,0.37598 -1.02051,0.37598 -0.590818,0 -0.859373,-0.2417 -0.268555,-0.2417 -0.510254,-0.99365 -1.020508,-3.11524 -3.007812,-4.75342 -1.960449,-1.63819 -5.102539,-1.96045 l 0,-3.14209 z m -0.134278,19.55078 0,-3.11523 q 1.557618,-0.75196 2.309571,-1.63819 0.751953,-0.88623 1.101074,-2.36328 0.214844,-1.02051 0.563965,-1.39648 0.349121,-0.40284 0.993652,-0.40284 0.859375,0 1.181641,0.67139 0.187988,0.34912 0.187988,1.58447 l 0,10.23194 q 0,1.2622 -0.29541,1.7456 -0.268555,0.4834 -1.020508,0.4834 -0.617676,0 -0.966797,-0.37598 -0.349121,-0.37597 -0.563965,-1.2622 -0.456543,-1.85303 -1.315918,-2.84668 -0.832519,-0.99365 -2.175293,-1.31592 z m 0.161133,17.10693 0,-2.90039 q 1.745606,-0.26855 2.873535,-0.75195 1.154785,-0.4834 2.309571,-1.47705 1.154785,-0.99365 1.826172,-2.04102 0.698242,-1.07422 1.315917,-2.81982 0.295411,-0.85938 0.617676,-1.15479 0.322262,-0.32226 0.886232,-0.32226 0.75195,0 1.04736,0.45654 0.29541,0.42969 0.29541,1.53076 l 0,9.47998 -11.171873,0 z"
           style="font-style:normal;font-variant:normal;font-weight:normal;font-stretch:normal;font-size:55px;font-family:Stencil;-inkscape-font-specification:Stencil;fill:#d7e3f4;fill-opacity:1"
           id="path11115"
           inkscape:connector-curvature="0" />
        <path
           d="m 134.56836,142.36987 -11.95068,0 -0.69825,0 q -0.96679,0 -1.5039,-0.34912 -0.51026,-0.37597 -0.51026,-1.04736 0,-1.10108 1.07422,-1.4502 0.88623,-0.29541 1.02051,-0.34912 0.16113,-0.0806 0.32227,-0.32226 0.32226,-0.42969 0.32226,-1.36963 l 0,-26.88233 q 0,-0.93994 -0.32226,-1.36963 -0.16114,-0.24169 -0.32227,-0.29541 -0.13428,-0.0806 -1.02051,-0.37597 -1.07422,-0.34912 -1.07422,-1.4502 0,-0.67138 0.51026,-1.02051 0.53711,-0.37597 1.5039,-0.37597 l 0.69825,0 11.97753,0 0.91309,0 q 1.18164,0 1.6919,0.32226 0.69824,0.42969 0.69824,1.12793 0,1.18164 -1.28907,1.47705 -1.04736,0.2417 -1.23535,0.32227 -0.18798,0.0806 -0.40283,0.32227 -0.40283,0.48339 -0.40283,1.5039 l 0,31.58203 z m 2.17529,0 0,-3.00781 q 1.31592,-0.2417 2.06787,-0.53711 0.77881,-0.29541 1.47705,-0.85937 1.12793,-0.88623 2.06788,-2.44385 0.93994,-1.55762 1.53076,-3.46436 0.42968,-1.47705 0.77881,-1.93359 0.37597,-0.4834 1.07421,-0.4834 0.75196,0 1.10108,0.61768 0.16113,0.29541 0.16113,1.18164 l 0,10.93017 -10.25879,0 z"
           style="font-style:normal;font-variant:normal;font-weight:normal;font-stretch:normal;font-size:55px;font-family:Stencil;-inkscape-font-specification:Stencil;fill:#d7e3f4;fill-opacity:1"
           id="path11117"
           inkscape:connector-curvature="0" />
        <path
           d="m 160.00049,105.71216 10.82275,0 7.46582,31.55517 q 0.21485,0.83252 0.4834,1.47705 0.2417,0.51026 1.07422,0.83252 0.69824,0.29541 0.9668,0.59082 0.26855,0.29541 0.26855,0.80567 0,1.39648 -2.09473,1.39648 l -13.40087,0 q -0.80567,0 -1.28907,-0.37597 -0.4834,-0.40284 -0.4834,-1.04737 0,-0.53711 0.21485,-0.80566 0.21484,-0.26856 0.9668,-0.67139 0.5371,-0.26855 0.75195,-0.59082 0.21484,-0.32226 0.21484,-0.80566 0,-0.45654 -0.0806,-0.80567 l -0.85938,-3.89404 -7.49267,0 0.72509,-3.1958 6.01563,0 -4.94141,-21.8335 0.67139,-2.63183 z m -1.85303,6.82129 1.36963,5.55908 -4.75342,17.34863 q -0.21484,0.75196 -0.21484,1.39649 0,1.69189 1.58447,2.41699 l 0.93994,0.42969 q 0.88623,0.40283 0.88623,1.34277 0,1.34277 -1.96045,1.34277 l -6.82129,0 q -0.99365,0 -1.58447,-0.40283 -0.56396,-0.42969 -0.56396,-1.15478 0,-0.77881 1.18164,-1.28907 1.10107,-0.4834 1.61133,-0.85937 0.5371,-0.40283 1.0205,-1.07422 0.75196,-1.10107 1.23535,-2.92725 l 6.06934,-22.1289 z"
           style="font-style:normal;font-variant:normal;font-weight:normal;font-stretch:normal;font-size:55px;font-family:Stencil;-inkscape-font-specification:Stencil;fill:#d7e3f4;fill-opacity:1"
           id="path11119"
           inkscape:connector-curvature="0" />
        <path
           d="m 221.04297,105.71216 11.92383,0 0.72509,0 q 2.01416,0 2.01416,1.39648 0,1.10108 -1.07421,1.4502 -0.88623,0.29541 -1.04737,0.37597 -0.13427,0.0537 -0.29541,0.29541 -0.32226,0.42969 -0.32226,1.36963 l 0,26.88233 q 0,0.93994 0.32226,1.36963 0.16114,0.2417 0.29541,0.32226 0.16114,0.0537 1.04737,0.34912 1.07421,0.34912 1.07421,1.4502 0,1.39648 -2.01416,1.39648 l -0.72509,0 -11.95069,0 -0.88623,0 q -1.18164,0 -1.79931,-0.34912 -0.59082,-0.37597 -0.59082,-1.10107 0,-1.18164 1.28906,-1.47705 1.04736,-0.26856 1.23535,-0.32227 0.18799,-0.0806 0.37598,-0.32226 0.40283,-0.4834 0.40283,-1.53077 l 0,-31.55517 z m -9.88281,0 5.29052,15.06592 2.33643,-8.13721 0,8.91601 -6.20361,20.81299 -1.42334,0 -10.41993,-30.91064 q -0.53711,-1.55762 -1.12793,-2.09473 -0.34912,-0.34912 -1.20849,-0.51025 -1.74561,-0.37598 -1.74561,-1.66504 0,-0.69824 0.4834,-1.07422 0.51026,-0.40283 1.4502,-0.40283 l 12.56836,0 z m -10.41993,12.35351 2.84668,8.11036 0,8.08349 q 0,1.23535 0.0806,1.77246 0.10742,0.53711 0.42969,1.18164 0.56396,1.18164 1.55762,1.77246 l 0.99365,0.64454 q 1.02051,0.61767 1.02051,1.36962 0,1.36963 -2.01416,1.36963 l -6.74073,0 q -2.01416,0 -2.01416,-1.34277 0,-0.42969 0.16114,-0.64453 0.18798,-0.2417 0.69824,-0.53711 2.98095,-1.61133 2.98095,-5.58594 l 0,-16.19385 z"
           style="font-style:normal;font-variant:normal;font-weight:normal;font-stretch:normal;font-size:55px;font-family:Stencil;-inkscape-font-specification:Stencil;fill:#d7e3f4;fill-opacity:1"
           id="path11121"
           inkscape:connector-curvature="0" />
        <path
           d="m 254.77344,105.71216 0,36.65771 -11.95069,0 -0.69824,0 q -0.9668,0 -1.5039,-0.34912 -0.51026,-0.37597 -0.51026,-1.04736 0,-1.10108 1.07422,-1.4502 0.88623,-0.29541 1.02051,-0.34912 0.16113,-0.0806 0.32226,-0.32226 0.32227,-0.42969 0.32227,-1.36963 l 0,-26.88233 q 0,-0.93994 -0.32227,-1.36963 -0.16113,-0.24169 -0.32226,-0.29541 -0.13428,-0.0806 -1.02051,-0.37597 -1.07422,-0.34912 -1.07422,-1.4502 0,-0.67138 0.51026,-1.02051 0.5371,-0.37597 1.5039,-0.37597 l 0.69824,0 11.95069,0 z m 2.39013,0 10.82276,0 0,9.50683 q 0,0.83252 -0.32227,1.2085 -0.32226,0.37598 -1.02051,0.37598 -0.59082,0 -0.85937,-0.2417 -0.26856,-0.2417 -0.51025,-0.99365 -1.02051,-3.11524 -3.00782,-4.75342 -1.96045,-1.63819 -5.10254,-1.96045 l 0,-3.14209 z m -0.13427,19.55078 0,-3.11523 q 1.55761,-0.75196 2.30957,-1.63819 0.75195,-0.88623 1.10107,-2.36328 0.21485,-1.02051 0.56397,-1.39648 0.34912,-0.40284 0.99365,-0.40284 0.85937,0 1.18164,0.67139 0.18799,0.34912 0.18799,1.58447 l 0,10.23194 q 0,1.2622 -0.29541,1.7456 -0.26856,0.4834 -1.02051,0.4834 -0.61768,0 -0.9668,-0.37598 -0.34912,-0.37597 -0.56396,-1.2622 -0.45655,-1.85303 -1.31592,-2.84668 -0.83252,-0.99365 -2.17529,-1.31592 z m 0.16113,17.10693 0,-2.90039 q 1.74561,-0.26855 2.87353,-0.75195 1.15479,-0.4834 2.30958,-1.47705 1.15478,-0.99365 1.82617,-2.04102 0.69824,-1.07422 1.31591,-2.81982 0.29542,-0.85938 0.61768,-1.15479 0.32227,-0.32226 0.88623,-0.32226 0.75195,0 1.04736,0.45654 0.29541,0.42969 0.29541,1.53076 l 0,9.47998 -11.17187,0 z"
           style="font-style:normal;font-variant:normal;font-weight:normal;font-stretch:normal;font-size:55px;font-family:Stencil;-inkscape-font-specification:Stencil;fill:#d7e3f4;fill-opacity:1"
           id="path11123"
           inkscape:connector-curvature="0" />
        <path
           d="m 287.10742,105.71216 0,31.55517 q 0,1.04737 0.40283,1.50391 0.21485,0.26855 0.40284,0.34912 0.18798,0.0537 1.23535,0.32227 1.28906,0.29541 1.28906,1.47705 0,0.69824 -0.69824,1.12793 -0.51026,0.32226 -1.6919,0.32226 l -0.91308,0 -11.97754,0 -0.69824,0 q -0.9668,0 -1.50391,-0.34912 -0.51025,-0.37597 -0.51025,-1.04736 0,-1.10108 1.07421,-1.4502 0.88624,-0.29541 1.02051,-0.34912 0.16114,-0.0806 0.32227,-0.32226 0.32226,-0.42969 0.32226,-1.36963 l 0,-26.88233 q 0,-0.93994 -0.32226,-1.36963 -0.16113,-0.24169 -0.32227,-0.29541 -0.13427,-0.0806 -1.02051,-0.37597 -1.07421,-0.34912 -1.07421,-1.4502 0,-0.67138 0.51025,-1.02051 0.53711,-0.37597 1.50391,-0.37597 l 0.69824,0 11.95068,0 z m 8.24463,18.6914 q 2.4707,0.37598 3.78662,0.83252 1.34278,0.45655 2.41699,1.23536 1.12793,0.83252 1.71875,1.9873 0.61768,1.15479 0.61768,2.44385 l 0,5.55908 q 0,0.85937 0.56396,0.85937 0.21485,0 0.34913,-0.10742 0.16113,-0.13427 0.42968,-0.4834 0.67139,-0.91308 1.36963,-0.91308 0.45655,0 0.91309,0.4834 0.45654,0.4834 0.45654,0.96679 0,0.83252 -0.80566,2.04102 -0.77881,1.18164 -1.96045,2.12158 -1.10108,0.88623 -2.39014,1.26221 -1.28906,0.40283 -3.03467,0.40283 -3.54492,0 -5.53222,-2.01416 -1.98731,-2.04102 -1.98731,-5.6665 l 0,-4.51172 q 0,-1.50391 -0.0268,-1.74561 -0.13428,-1.07422 -0.75196,-1.85302 -0.77881,-0.93995 -2.229,-1.10108 l 0,-2.87353 q 1.45019,-0.21485 2.06787,-0.75196 0.53711,-0.4834 0.7251,-1.10107 0.21484,-0.61768 0.21484,-1.82617 l 0,-7.1167 q 0,-1.6919 -0.67138,-2.52442 -0.64454,-0.83252 -2.36329,-1.31591 l 0,-2.98096 0.69825,0 q 2.98095,0 5.07568,0.21484 3.11523,0.29541 5.55908,2.04102 3.51807,2.49756 3.51807,7.1167 0,3.78662 -2.36328,6.20361 -0.99366,1.02051 -2.33643,1.66504 -1.31592,0.64453 -4.02832,1.45019 z"
           style="font-style:normal;font-variant:normal;font-weight:normal;font-stretch:normal;font-size:55px;font-family:Stencil;-inkscape-font-specification:Stencil;fill:#d7e3f4;fill-opacity:1"
           id="path11125"
           inkscape:connector-curvature="0" />
      </g>
    </g>
  </g>
  <flowRoot
     xml:space="preserve"
     id="flowRoot10509"
     style="font-style:normal;font-weight:normal;font-size:40px;line-height:125%;font-family:sans-serif;letter-spacing:0px;word-spacing:0px;fill:#000000;fill-opacity:1;stroke:none;stroke-width:1px;stroke-linecap:butt;stroke-linejoin:miter;stroke-opacity:1"
     transform="translate(0,-300)"><flowRegion
       id="flowRegion10511"><rect
         id="rect10513"
         width="61.422413"
         height="53.931873"
         x="73.407272"
         y="128.46931" /></flowRegion><flowPara
       id="flowPara10515" /></flowRoot></svg>
